<?xml version="1.0" encoding="UTF-8"?>
<svg xmlns="http://www.w3.org/2000/svg" width="24" height="16" viewBox="0 0 24 16" fill="none">
  <path d="M22.8969 3.89088H22.1213V2.36364C22.1213 2.16949 21.9638 2.01208 21.7697 2.01208H16.509C16.3149 2.01208 16.1575 2.16949 16.1575 2.36364V3.89088H14.9818V1.61214C14.9818 1.41799 14.8244 1.26058 14.6302 1.26058H9.3697C9.17555 1.26058 9.01814 1.41799 9.01814 1.61214V3.89088H7.84247V0.860596C7.84247 0.666439 7.68506 0.509033 7.49091 0.509033H2.23036C2.0362 0.509033 1.8788 0.666439 1.8788 0.860596V3.89088H1.10306C0.494859 3.89088 0 4.38574 0 4.99394V15.1394C0 15.3335 0.157406 15.4909 0.351562 15.4909C0.545719 15.4909 0.703125 15.3335 0.703125 15.1394V14.3637H23.2969V15.1394C23.2969 15.3335 23.4543 15.4909 23.6484 15.4909C23.8426 15.4909 24 15.3335 24 15.1394V4.99394C24 4.38574 23.5051 3.89088 22.8969 3.89088ZM16.8606 2.7152H21.4181V3.89088H16.8606V2.7152ZM9.72127 1.9637H14.2787V3.89088H9.72127V1.9637ZM2.58192 1.21216H7.13939V3.89088H2.58192V1.21216ZM1.10306 4.594H22.8969C23.1175 4.594 23.2969 4.77344 23.2969 4.99394V8.77567H22.1212V5.74544C22.1212 5.55128 21.9638 5.39388 21.7696 5.39388H16.509C16.3149 5.39388 16.1575 5.55128 16.1575 5.74544V6.87269C16.1575 7.06685 16.3149 7.22425 16.509 7.22425C16.7032 7.22425 16.8606 7.06685 16.8606 6.87269V6.097H21.4181V8.77567H16.8606V8.37574C16.8606 8.18158 16.7032 8.02417 16.509 8.02417C16.3149 8.02417 16.1575 8.18158 16.1575 8.37574V8.77567H14.9818V7.24844C14.9818 7.05428 14.8244 6.89688 14.6302 6.89688H9.3697C9.17555 6.89688 9.01814 7.05428 9.01814 7.24844V8.77567H7.84247V6.49694C7.84247 6.30278 7.68506 6.14538 7.49091 6.14538H2.23036C2.0362 6.14538 1.8788 6.30278 1.8788 6.49694V8.77567H0.703125V4.99394C0.703125 4.77344 0.882562 4.594 1.10306 4.594ZM9.72127 8.77567V7.6H14.2787V8.77567H9.72127ZM2.58192 8.77567V6.8485H7.13939V8.77567H2.58192ZM14.2787 13.6605H9.72127V10.9818H14.2787V13.6605ZM21.4181 13.6605H16.8606V11.7333H21.4181V13.6605ZM22.1212 13.6605V11.3818C22.1212 11.1876 21.9638 11.0302 21.7696 11.0302H16.509C16.3149 11.0302 16.1575 11.1876 16.1575 11.3818V13.6605H14.9818V10.6302C14.9818 10.4361 14.8244 10.2787 14.6302 10.2787H9.3697C9.17555 10.2787 9.01814 10.4361 9.01814 10.6302V13.6605H7.84247V12.1333C7.84247 11.9391 7.68506 11.7817 7.49091 11.7817H4.86061C4.66645 11.7817 4.50905 11.9391 4.50905 12.1333C4.50905 12.3274 4.66645 12.4848 4.86061 12.4848H7.13934V13.6605H2.58192V12.4848H3.35761C3.55177 12.4848 3.70917 12.3274 3.70917 12.1333C3.70917 11.9391 3.55177 11.7817 3.35761 11.7817H2.23036C2.0362 11.7817 1.8788 11.9391 1.8788 12.1333V13.6605H0.703125V9.4788H23.2969V13.6605H22.1212Z" fill="white"></path>
</svg>
