<?xml version="1.0" encoding="UTF-8"?>
<svg xmlns="http://www.w3.org/2000/svg" width="20" height="21" viewBox="0 0 20 21" fill="none">
  <path d="M19.7473 6.86363C19.8864 6.86363 20 6.74454 20 6.61092V5.2982C20 5.15912 19.8927 5.04549 19.7473 5.04549H0.252712C0.113627 5.04549 0 5.16458 0 5.2982V6.61092C0 6.75 0.107288 6.86363 0.252712 6.86363H19.7473Z" fill="white"></path>
  <path d="M0 11.1563C0 11.2954 0.107288 11.4091 0.252712 11.4091H19.7473C19.8863 11.4091 20 11.2899 20 11.1563V9.84363C20 9.70363 19.8927 9.59092 19.7473 9.59092H0.252712C0.113627 9.59092 0 9.71003 0 9.84363V11.1563Z" fill="white"></path>
  <path d="M0 15.7018C0 15.8409 0.107288 15.9545 0.252712 15.9545H19.7473C19.8863 15.9545 20 15.8354 20 15.7018V14.3891C20 14.25 19.8927 14.1364 19.7473 14.1364H0.252712C0.113627 14.1364 0 14.2555 0 14.3891V15.7018Z" fill="white"></path>
</svg>
