<?xml version="1.0" encoding="UTF-8"?>
<svg xmlns="http://www.w3.org/2000/svg" width="56" height="55" viewBox="0 0 56 55" fill="none">
  <g clip-path="url(#clip0_209_1626)">
    <path d="M52.845 45.1269L41.5029 33.7847L46.0905 32.115C46.4816 31.9727 46.714 31.5701 46.6416 31.1602L45.4127 24.191L48.9511 18.0622C49.1592 17.7018 49.0785 17.244 48.7597 16.9765L43.3385 12.4277L42.1096 5.45844C42.0373 5.04863 41.6813 4.74989 41.2651 4.74989H34.1881L28.7673 0.200691C28.4484 -0.0668968 27.9836 -0.0668968 27.6646 0.200691L22.2436 4.74957H15.1668C14.7505 4.74957 14.3945 5.04831 14.3222 5.45812L13.0933 12.4273L7.67206 16.9762C7.35323 17.2437 7.27256 17.7015 7.48063 18.0619L11.0191 24.1906L9.7902 31.1598C9.7178 31.5698 9.95026 31.9723 10.3414 32.1147L14.7348 33.7137L3.3218 45.1269C3.0858 45.363 3.00813 45.7149 3.12307 46.0284C3.23791 46.3419 3.52429 46.5602 3.85708 46.5879L10.8961 47.1747L11.4828 54.2136C11.5106 54.5464 11.7288 54.8328 12.0424 54.9476C12.1386 54.983 12.2383 55 12.3373 55C12.5608 55 12.7802 54.9126 12.9439 54.7489L28.0835 39.6093L43.223 54.7489C43.3869 54.9126 43.6061 55 43.8297 55C43.9286 55 44.0284 54.983 44.1245 54.9476C44.4381 54.8328 44.6564 54.5464 44.684 54.2136L45.2708 47.1748L52.3097 46.5881C52.6425 46.5603 52.9289 46.3421 53.0437 46.0284C53.1587 45.7148 53.081 45.3631 52.845 45.1269ZM13.0385 52.2285L12.5451 46.3091C12.5103 45.8917 12.1793 45.5605 11.7617 45.5257L5.84224 45.0323L16.5133 34.3612L16.9914 34.5352L20.5298 40.664C20.6866 40.9356 20.9734 41.0929 21.2727 41.0929C21.3705 41.0929 21.4695 41.0761 21.5659 41.0411L25.7475 39.5192L13.0385 52.2285ZM28.9152 37.0502L28.5091 36.9025C28.3197 36.8334 28.1119 36.8334 27.9225 36.9025L27.321 37.1214L21.6555 39.1834L18.3208 33.4075C18.2199 33.233 18.0609 33.0994 17.8714 33.0304L16.5867 32.5626L11.6043 30.7494L12.7626 24.1815C12.7977 23.9828 12.7616 23.7782 12.6608 23.6036L9.32603 17.8277L14.4352 13.5407C14.5897 13.4112 14.6936 13.2314 14.7284 13.0329L15.8865 6.46488H22.5558C22.7575 6.46488 22.9527 6.39387 23.107 6.26421L28.216 1.97723L33.325 6.26421C33.4795 6.39387 33.6747 6.46488 33.8763 6.46488H40.5457L41.7038 13.0329C41.7388 13.2314 41.8426 13.4113 41.9969 13.5407L47.106 17.8277L43.7713 23.6036C43.6705 23.7781 43.6345 23.9828 43.6695 24.1814L44.8277 30.7493L39.6513 32.6333L38.5605 33.0304C38.3711 33.0994 38.2119 33.2329 38.1112 33.4075L34.7766 39.1834L28.9167 37.0506C28.9162 37.0504 28.9157 37.0504 28.9152 37.0502ZM44.4052 45.5258C43.9879 45.5606 43.6566 45.8916 43.6218 46.3092L43.1285 52.2287L30.2677 39.3675L34.866 41.0412C34.9623 41.0764 35.0614 41.093 35.1591 41.093C35.4584 41.093 35.7452 40.9357 35.902 40.6641L39.4403 34.5353L39.7243 34.432L50.3247 45.0324L44.4052 45.5258Z" fill="#2A9E44"></path>
    <path d="M28.0835 7.3606C20.5489 7.3606 14.4191 13.4904 14.4191 21.0251C14.4191 28.5597 20.549 34.6894 28.0835 34.6894C35.6182 34.6894 41.7479 28.5596 41.7479 21.0251C41.7479 13.4905 35.6181 7.3606 28.0835 7.3606ZM28.0835 32.9742C21.4947 32.9742 16.1343 27.6138 16.1343 21.025C16.1343 14.4361 21.4947 9.0758 28.0835 9.0758C34.6722 9.0758 40.0328 14.4362 40.0328 21.0251C40.0328 27.6139 34.6722 32.9742 28.0835 32.9742Z" fill="#2A9E44"></path>
    <path d="M37.9534 18.2941C37.8386 17.9407 37.5093 17.7015 37.1378 17.7015H30.8083L28.8524 11.6818C28.7376 11.3283 28.4084 11.0891 28.0368 11.0891C27.6653 11.0891 27.336 11.3283 27.2211 11.6818L25.2652 17.7015H18.9357C18.5642 17.7015 18.2349 17.9407 18.12 18.2941C18.0052 18.6474 18.131 19.0346 18.4317 19.2529L23.5524 22.9733L21.5964 28.9931C21.4816 29.3464 21.6074 29.7335 21.9081 29.9519C22.0583 30.0612 22.2352 30.1157 22.4121 30.1157C22.589 30.1157 22.7658 30.0611 22.9161 29.9519L28.0368 26.2317L33.1574 29.9519C33.4579 30.1703 33.8649 30.1703 34.1654 29.9519C34.466 29.7336 34.5917 29.3465 34.477 28.9931L32.5211 22.9733L37.6418 19.2529C37.9425 19.0346 38.0681 18.6474 37.9534 18.2941ZM31.0089 21.952C30.7084 22.1703 30.5826 22.5574 30.6973 22.9109L32.0301 27.0129L28.5407 24.4778C28.2401 24.2594 27.8331 24.2594 27.5327 24.4778L24.0432 27.013L25.3759 22.9109C25.4908 22.5576 25.365 22.1704 25.0643 21.9521L21.575 19.4169H25.8883C26.2598 19.4169 26.5892 19.1776 26.704 18.8242L28.0368 14.7222L29.3695 18.8242C29.4843 19.1776 29.8135 19.4169 30.1851 19.4169H34.4984L31.0089 21.952Z" fill="#2A9E44"></path>
  </g>
  <defs>
    <clipPath id="clip0_209_1626">
      <rect width="55" height="55" fill="white" transform="translate(0.583374)"></rect>
    </clipPath>
  </defs>
</svg>
