<?xml version="1.0" encoding="UTF-8"?>
<svg xmlns="http://www.w3.org/2000/svg" width="37" height="37" viewBox="0 0 37 37" fill="none">
  <path fill-rule="evenodd" clip-rule="evenodd" d="M26.0283 22.8996H24.3746L23.8015 22.3294C25.8311 19.9631 27.0648 16.8935 27.0648 13.5313C27.0648 6.05804 21.006 0 13.5321 0C6.05876 0 0 6.05804 0 13.5313C0 21.0053 6.05876 27.0633 13.5321 27.0633C16.8935 27.0633 19.9617 25.8303 22.3286 23.8015L22.9024 24.3738V26.0226L33.3086 36.4131L36.4124 33.3094L26.0283 22.8996ZM13.532 22.8996C8.35736 22.8996 4.16374 18.7059 4.16374 13.5313C4.16374 8.3574 8.35736 4.16303 13.532 4.16303C18.7065 4.16303 22.9009 8.3574 22.9009 13.5313C22.9009 18.7059 18.7065 22.8996 13.532 22.8996Z" fill="#DADADA"></path>
</svg>
