<?xml version="1.0" encoding="UTF-8"?>
<svg xmlns="http://www.w3.org/2000/svg" width="26" height="26" viewBox="0 0 26 26" fill="none">
  <path d="M13 25.1875C10.5895 25.1875 8.23322 24.4727 6.22899 23.1335C4.22477 21.7944 2.66267 19.8909 1.74022 17.664C0.817781 15.437 0.576427 12.9865 1.04668 10.6223C1.51694 8.2582 2.67769 6.08659 4.38214 4.38214C6.08659 2.67769 8.2582 1.51694 10.6223 1.04668C12.9865 0.576427 15.437 0.817781 17.664 1.74022C19.8909 2.66267 21.7944 4.22477 23.1335 6.22899C24.4727 8.23322 25.1875 10.5895 25.1875 13C25.1875 16.2323 23.9035 19.3323 21.6179 21.6179C19.3323 23.9035 16.2323 25.1875 13 25.1875ZM13 2.68751C10.9604 2.68751 8.96657 3.29232 7.27069 4.42547C5.57481 5.55863 4.25303 7.16922 3.4725 9.05358C2.69197 10.9379 2.48775 13.0114 2.88566 15.0119C3.28357 17.0123 4.26574 18.8498 5.70797 20.292C7.1502 21.7343 8.98771 22.7164 10.9881 23.1144C12.9886 23.5123 15.0621 23.308 16.9464 22.5275C18.8308 21.747 20.4414 20.4252 21.5745 18.7293C22.7077 17.0334 23.3125 15.0396 23.3125 13C23.3125 10.265 22.226 7.64194 20.292 5.70797C18.3581 3.774 15.7351 2.68751 13 2.68751Z" fill="#2A9E44"></path>
  <path d="M18.1563 19.0937C18.0329 19.0945 17.9106 19.0708 17.7964 19.0242C17.6821 18.9775 17.5782 18.9088 17.4906 18.8219L12.3344 13.6656C12.2475 13.578 12.1788 13.4741 12.1321 13.3599C12.0855 13.2457 12.0618 13.1234 12.0625 13V5.5C12.0625 5.25136 12.1613 5.0129 12.3371 4.83709C12.5129 4.66127 12.7514 4.5625 13 4.5625C13.2487 4.5625 13.4871 4.66127 13.6629 4.83709C13.8387 5.0129 13.9375 5.25136 13.9375 5.5V12.6156L18.8219 17.4906C18.9098 17.5778 18.9795 17.6815 19.0271 17.7957C19.0747 17.91 19.0992 18.0325 19.0992 18.1562C19.0992 18.28 19.0747 18.4025 19.0271 18.5168C18.9795 18.631 18.9098 18.7347 18.8219 18.8219C18.7343 18.9088 18.6304 18.9775 18.5162 19.0242C18.402 19.0708 18.2796 19.0945 18.1563 19.0937Z" fill="#2A9E44"></path>
</svg>
