<?xml version="1.0" encoding="UTF-8"?>
<svg xmlns="http://www.w3.org/2000/svg" width="20" height="24" viewBox="0 0 20 24" fill="none">
  <path d="M19.9365 21.364L16.7591 13.6933C16.6782 13.4979 16.4542 13.405 16.2587 13.486C16.0633 13.567 15.9705 13.791 16.0515 13.9864L18.9239 20.9209L16.3038 20.1617C16.1318 20.1118 15.9482 20.1879 15.8618 20.3449L14.546 22.7343L11.4639 15.2935C15.0212 14.6075 17.7165 11.4712 17.7165 7.71671C17.7166 3.46172 14.2549 0 9.99989 0C5.7449 0 2.28318 3.46172 2.28318 7.71671C2.28318 9.44017 2.85121 11.0334 3.80978 12.3193L0.0633305 21.364C0.00700706 21.5 0.0336113 21.6563 0.131807 21.766C0.229952 21.8756 0.382377 21.9194 0.523773 21.8784L3.61482 20.9827L5.16716 23.8018C5.23477 23.9245 5.3636 24 5.50255 24C5.50959 24 5.51669 23.9998 5.52379 23.9994C5.6708 23.9913 5.8001 23.8996 5.85647 23.7636L8.82512 16.5966C8.90605 16.4012 8.81327 16.1772 8.61785 16.0962C8.42243 16.0153 8.19841 16.1081 8.11748 16.3035L5.45373 22.7343L4.13797 20.3449C4.05157 20.1879 3.86779 20.1118 3.69591 20.1617L1.07593 20.9209L4.36428 12.9821C5.77354 14.4895 7.77841 15.4334 9.99989 15.4334C10.2292 15.4334 10.456 15.4227 10.6803 15.403L14.1434 23.7636C14.1997 23.8996 14.329 23.9913 14.476 23.9994C14.4831 23.9998 14.4902 24 14.4973 24C14.6362 24 14.7651 23.9245 14.8326 23.8018L16.385 20.9827L19.4761 21.8784C19.6176 21.9194 19.7698 21.8756 19.868 21.766C19.9662 21.6563 19.9928 21.5 19.9365 21.364ZM3.04913 7.71671C3.04913 3.88407 6.16725 0.765957 9.99989 0.765957C13.8325 0.765957 16.9506 3.88407 16.9506 7.71671C16.9506 11.5494 13.8325 14.6674 9.99989 14.6674C6.16725 14.6674 3.04913 11.5494 3.04913 7.71671Z" fill="white"></path>
  <path d="M14.4247 6.27887C14.3806 6.14314 14.2646 6.04316 14.1238 6.01952L11.5468 5.58706L10.3392 3.26983C10.2732 3.14325 10.1423 3.06384 9.99957 3.06384C9.85684 3.06384 9.72592 3.14325 9.65994 3.26983L8.45228 5.58706L5.8753 6.01952C5.73451 6.04311 5.61855 6.14309 5.57443 6.27887C5.53031 6.41465 5.56534 6.56366 5.66537 6.66553L7.49601 8.53012L7.11099 11.1147C7.08995 11.2559 7.14918 11.397 7.26469 11.4809C7.3801 11.5648 7.53272 11.5775 7.66049 11.5139L9.99957 10.3491L12.3386 11.5139C12.3927 11.5408 12.4511 11.5541 12.5093 11.5541C12.5888 11.5541 12.6678 11.5294 12.7344 11.481C12.85 11.3971 12.9092 11.2559 12.8881 11.1147L12.5032 8.53017L14.3338 6.66553C14.4338 6.56366 14.4688 6.41465 14.4247 6.27887ZM11.823 8.12963C11.7388 8.21537 11.6997 8.33557 11.7175 8.45434L12.0223 10.5007L10.1703 9.57841C10.1165 9.55166 10.0581 9.53823 9.99957 9.53823C9.9411 9.53823 9.88258 9.5516 9.82886 9.57841L7.97688 10.5007L8.28173 8.45434C8.29945 8.33557 8.26038 8.21531 8.17623 8.12963L6.72678 6.65327L8.76714 6.31084C8.88561 6.29097 8.98789 6.21668 9.0434 6.11016L9.99957 4.27549L10.9557 6.11021C11.0113 6.21673 11.1135 6.29103 11.232 6.31089L13.2724 6.65332L11.823 8.12963Z" fill="white"></path>
  <path d="M15.8017 8.10296C15.592 8.07492 15.3995 8.2226 15.3717 8.43232C15.0165 11.1135 12.7072 13.1355 10.0002 13.1355C7.01228 13.1355 4.58139 10.7047 4.58139 7.71666C4.58139 4.72866 7.01228 2.29782 10.0002 2.29782C12.7073 2.29782 15.0165 4.31974 15.3717 7.001C15.3995 7.21072 15.5923 7.3585 15.8017 7.33036C16.0113 7.30258 16.1588 7.11007 16.131 6.9004C15.7256 3.83984 13.0899 1.53186 10.0002 1.53186C6.58993 1.53186 3.81543 4.30631 3.81543 7.71666C3.81543 11.127 6.58993 13.9014 10.0002 13.9014C13.0899 13.9014 15.7256 11.5934 16.1311 8.53286C16.1588 8.32325 16.0114 8.13074 15.8017 8.10296Z" fill="white"></path>
</svg>
