<?xml version="1.0" encoding="UTF-8"?>
<svg xmlns="http://www.w3.org/2000/svg" width="26" height="25" viewBox="0 0 26 25" fill="none">
  <path d="M22.2722 19.0828L18.2845 15.1164C19.1084 13.8812 19.5907 12.4023 19.5907 10.8125C19.5907 6.50469 16.0672 3 11.7363 3C7.40533 3 3.88184 6.50469 3.88184 10.8125C3.88184 15.1203 7.40533 18.625 11.7363 18.625C13.3346 18.625 14.8215 18.1453 16.0633 17.3258L20.051 21.2922C20.6636 21.9023 21.6595 21.9023 22.2722 21.2922C22.8856 20.682 22.8856 19.693 22.2722 19.0828ZM6.23816 10.8125C6.23816 7.79687 8.70445 5.34375 11.7363 5.34375C14.7681 5.34375 17.2344 7.79687 17.2344 10.8125C17.2344 13.8281 14.7681 16.2812 11.7363 16.2812C8.70445 16.2812 6.23816 13.8281 6.23816 10.8125Z" fill="white"></path>
</svg>
