<?xml version="1.0" encoding="UTF-8"?>
<svg xmlns="http://www.w3.org/2000/svg" width="19" height="19" viewBox="0 0 19 19" fill="none">
  <path d="M18.3904 16.0828L14.4027 12.1164C15.2266 10.8812 15.7089 9.40234 15.7089 7.8125C15.7089 3.50469 12.1854 0 7.85443 0C3.5235 0 0 3.50469 0 7.8125C0 12.1203 3.5235 15.625 7.85443 15.625C9.4528 15.625 10.9396 15.1453 12.1814 14.3258L16.1691 18.2922C16.7818 18.9023 17.7777 18.9023 18.3904 18.2922C19.0038 17.682 19.0038 16.693 18.3904 16.0828ZM2.35633 7.8125C2.35633 4.79687 4.82262 2.34375 7.85443 2.34375C10.8862 2.34375 13.3525 4.79687 13.3525 7.8125C13.3525 10.8281 10.8862 13.2812 7.85443 13.2812C4.82262 13.2812 2.35633 10.8281 2.35633 7.8125Z" fill="#2A9E44"></path>
</svg>
