<?xml version="1.0" encoding="UTF-8"?>
<svg xmlns="http://www.w3.org/2000/svg" width="30" height="30" viewBox="0 0 30 30" fill="none">
  <g clip-path="url(#clip0_209_2646)">
    <mask id="mask0_209_2646" style="mask-type:luminance" maskUnits="userSpaceOnUse" x="0" y="0" width="30" height="30">
      <path d="M30 0H0V30H30V0Z" fill="white"></path>
    </mask>
    <g mask="url(#mask0_209_2646)">
      <path d="M11.7715 18.9761L11.2752 25.9561C11.9852 25.9561 12.2927 25.6511 12.6615 25.2849L15.9902 22.1036L22.8877 27.1549C24.1527 27.8599 25.044 27.4886 25.3852 25.9911L29.9127 4.77615L29.914 4.7749C30.3152 2.9049 29.2377 2.17365 28.0052 2.6324L1.39272 12.8211C-0.423527 13.5261 -0.396027 14.5386 1.08397 14.9974L7.88772 17.1136L23.6915 7.2249C24.4352 6.7324 25.1115 7.0049 24.5552 7.4974L11.7715 18.9761Z" fill="#2A9E44"></path>
    </g>
  </g>
  <defs>
    <clipPath id="clip0_209_2646">
      <rect width="30" height="30" fill="white"></rect>
    </clipPath>
  </defs>
</svg>
