<?xml version="1.0" encoding="UTF-8"?>
<svg xmlns="http://www.w3.org/2000/svg" width="55" height="55" viewBox="0 0 55 55" fill="none">
  <path d="M49.9529 5.06393C49.4711 4.56879 48.8224 4.29688 48.125 4.29688H44.5759C43.2214 4.29688 42.0901 5.35179 41.9994 6.69624L41.6946 11.1719H40.3906V5.15625C40.3906 4.6836 40.0039 4.29688 39.5312 4.29688H24.0625C23.5899 4.29688 23.2031 4.6836 23.2031 5.15625V7.73438H14.6094V5.15625C14.6094 4.6836 14.2226 4.29688 13.75 4.29688H8.59375C8.1211 4.29688 7.73438 4.6836 7.73438 5.15625V11.1719H5.15625C4.68166 11.1719 4.29688 11.5562 4.29688 12.0312V15.4688C4.29688 15.9438 4.68166 16.3281 5.15625 16.3281C5.17702 16.3281 5.19444 16.3178 5.21484 16.3163L5.83729 24.9831C5.87002 25.4363 6.24683 25.7812 6.69373 25.7812C6.71429 25.7812 6.73527 25.7804 6.75625 25.7787C7.22958 25.7452 7.58583 25.3339 7.55184 24.8606L6.93878 16.3281H41.3434L39.8216 38.6719H29.4336C28.9586 38.6719 28.5742 39.0562 28.5742 39.5312C28.5742 40.0063 28.9586 40.3906 29.4336 40.3906H39.7046L39.5875 42.1094H29.6484C29.1734 42.1094 28.7891 42.4937 28.7891 42.9688C28.7891 43.4438 29.1734 43.8281 29.6484 43.8281H40.3906C40.843 43.8281 41.2173 43.4782 41.2483 43.0275L43.7148 6.81206C43.7442 6.36559 44.1227 6.01562 44.5759 6.01562H48.125C48.3541 6.01562 48.5664 6.10374 48.7376 6.27914C48.8963 6.43356 48.9844 6.64589 48.9844 6.875C48.9844 7.34917 48.5992 7.73438 48.125 7.73438H46.4062C45.9539 7.73438 45.5796 8.08434 45.5486 8.535L43.025 45.5469H29.8633C29.3883 45.5469 29.0039 45.9312 29.0039 46.4062C29.0039 46.8813 29.3883 47.2656 29.8633 47.2656H30.9375C30.9375 49.1615 32.4792 50.7031 34.375 50.7031C36.2708 50.7031 37.8125 49.1615 37.8125 47.2656H43.8281C44.2805 47.2656 44.6548 46.9157 44.6858 46.465L47.2094 9.45312H48.125C49.5467 9.45312 50.7031 8.29666 50.7031 6.875C50.7031 6.1776 50.4312 5.52887 49.9529 5.06393ZM24.9219 6.01562H38.6719V11.1719H24.9219V6.01562ZM14.6094 9.45312H23.2031V11.1719H14.6094V9.45312ZM9.45312 6.01562H12.8906V11.1719H9.45312V6.01562ZM41.4605 14.6094H6.01562V12.8906H41.5776L41.4605 14.6094ZM34.375 48.9844C33.4275 48.9844 32.6562 48.2131 32.6562 47.2656H36.0938C36.0938 48.2131 35.3225 48.9844 34.375 48.9844ZM20.625 30.9375V34.375C20.625 36.7442 18.6973 38.6719 16.3281 38.6719C13.959 38.6719 12.0312 36.7442 12.0312 34.375V30.9375C12.0312 30.4625 12.416 30.0781 12.8906 30.0781C13.3652 30.0781 13.75 30.4625 13.75 30.9375V34.375C13.75 35.7967 14.9065 36.9531 16.3281 36.9531C17.7498 36.9531 18.9062 35.7967 18.9062 34.375V30.9375C18.9062 30.4625 19.291 30.0781 19.7656 30.0781C20.2402 30.0781 20.625 30.4625 20.625 30.9375ZM26.1035 26.6406H6.55273C6.09913 26.6406 5.72315 26.9931 5.69504 27.4463L4.29855 49.79C4.28387 50.0267 4.36737 50.2592 4.52976 50.4321C4.69215 50.6049 4.91917 50.7031 5.15625 50.7031H27.5C27.7371 50.7031 27.9641 50.6049 28.1265 50.4321C28.2889 50.2592 28.3728 50.0267 28.3577 49.79L26.9612 27.4463C26.9331 26.9931 26.5571 26.6406 26.1035 26.6406ZM6.07101 48.9844L7.36008 28.3594H25.2962L26.5852 48.9844H6.07101Z" fill="#2A9E44"></path>
</svg>
