<?xml version="1.0" encoding="UTF-8"?>
<svg xmlns="http://www.w3.org/2000/svg" width="30" height="30" viewBox="0 0 30 30" fill="none">
  <g clip-path="url(#clip0_209_2642)">
    <path d="M15.2501 0C7.11665 0 0.500148 6.6165 0.500148 14.75C0.500148 17.323 1.17315 19.851 2.44815 22.075L0.0256476 29.342C-0.0323524 29.5165 0.00964759 29.708 0.135148 29.842C0.231148 29.9445 0.364148 30 0.500148 30C0.542648 30 0.585148 29.9945 0.627148 29.9835L8.56065 27.896C10.6216 28.946 12.9301 29.5 15.2501 29.5C23.3836 29.5 30.0001 22.8835 30.0001 14.75C30.0001 6.6165 23.3836 0 15.2501 0ZM24.4541 21.4475L23.5751 22.327C22.4651 23.437 21.2266 24 19.8951 24C18.1001 24 16.1646 22.975 14.1436 20.9535L9.04665 15.857C7.45265 14.263 6.47315 12.7145 6.13515 11.254C5.72515 9.4805 6.24265 7.856 7.67365 6.4255L8.55315 5.546C9.11865 4.9805 10.0331 4.8415 10.7416 5.2165C12.0726 5.921 13.4516 8.229 13.6046 8.49C13.8806 8.9735 13.9651 9.4735 13.8461 9.902C13.7551 10.2295 13.5501 10.4965 13.2521 10.678C12.8481 11.016 12.3746 11.437 12.2911 11.544C11.7831 12.2935 11.8411 12.869 12.4956 13.524L16.4766 17.505C17.1366 18.1655 17.7021 18.22 18.4636 17.704C18.5641 17.6255 18.9846 17.152 19.3226 16.748C19.5751 16.3305 19.9886 16.102 20.4916 16.102C20.8211 16.102 21.1716 16.202 21.5051 16.392C21.7711 16.5485 24.0796 17.9275 24.7836 19.258C25.1686 19.986 25.0366 20.865 24.4541 21.4475Z" fill="#2A9E44"></path>
  </g>
  <defs>
    <clipPath id="clip0_209_2642">
      <rect width="30" height="30" fill="white"></rect>
    </clipPath>
  </defs>
</svg>
