<?xml version="1.0" encoding="UTF-8"?>
<svg xmlns="http://www.w3.org/2000/svg" width="28" height="28" viewBox="0 0 28 28" fill="none">
  <g clip-path="url(#clip0_703_564)">
    <rect x="0.0136719" y="0.345276" width="27.1214" height="27.1214" rx="13.5607" fill="#2A9E44"></rect>
    <g clip-path="url(#clip1_703_564)">
      <path d="M19.1098 9.52802H9.89938L9.63581 7.99493H7.30209C6.92539 7.99493 6.62109 8.2998 6.62109 8.67622V9.35722H8.48818L9.68954 16.3451C9.71613 16.4989 9.86404 16.6236 10.0204 16.6236H18.088C18.4647 16.6236 18.7696 16.3191 18.7696 15.9418V15.2614H10.8852L10.7192 14.2959H16.9529C17.7051 14.2959 18.4155 13.694 18.5397 12.9525L19.1098 9.52802Z" fill="white"></path>
      <path d="M12.1271 19.8168C12.7776 19.8168 13.305 19.2895 13.305 18.6389C13.305 17.9884 12.7776 17.461 12.1271 17.461C11.4766 17.461 10.9492 17.9884 10.9492 18.6389C10.9492 19.2895 11.4766 19.8168 12.1271 19.8168Z" fill="white"></path>
      <path d="M15.0352 18.6388C15.0352 19.289 15.562 19.8164 16.2122 19.8164C16.8629 19.8164 17.3909 19.289 17.3909 18.6388C17.3909 17.9887 16.8629 17.4606 16.2122 17.4606C15.562 17.4606 15.0352 17.9889 15.0352 18.6388Z" fill="white"></path>
    </g>
  </g>
  <defs>
    <clipPath id="clip0_703_564">
      <rect x="0.0136719" y="0.345276" width="27.1214" height="27.1214" rx="13.5607" fill="white"></rect>
    </clipPath>
    <clipPath id="clip1_703_564">
      <rect width="12.5176" height="11.8222" fill="white" transform="translate(6.62109 7.99493)"></rect>
    </clipPath>
  </defs>
</svg>
