<?xml version="1.0" encoding="UTF-8"?>
<svg xmlns="http://www.w3.org/2000/svg" width="512" height="512" viewBox="0 0 512 512" fill="none">
  <path d="M160 102.4C160 110.933 169.6 117.333 180.267 117.333C192 117.333 203.733 121.6 206.933 126.933C215.467 139.733 296.533 139.733 304 126.933C308.267 121.6 320 117.333 331.733 117.333C342.4 117.333 352 110.933 352 102.4C352 90.6665 330.667 87.4665 256 87.4665C181.333 87.4665 160 90.6665 160 102.4Z" fill="black"></path>
  <path d="M232.533 203.733C230.4 227.2 232.533 249.6 236.8 251.733C241.067 254.933 245.333 250.667 245.333 242.133C245.333 231.467 252.8 228.267 266.667 231.467C284.8 236.8 288 231.467 288 198.4C288 165.333 284.8 160 262.4 160C240 160 236.8 166.4 232.533 203.733Z" fill="black"></path>
  <path d="M234.666 309.333C232.533 324.267 234.666 355.2 237.866 358.4C238.933 359.467 249.6 362.667 261.333 366.933C278.4 372.267 283.733 368 284.8 352C285.866 340.267 281.6 330.667 276.266 330.667C269.866 330.667 268.8 334.933 272 341.333C275.2 346.667 270.933 352 262.4 352C253.866 352 245.333 339.2 242.133 322.133C240 306.133 236.8 300.8 234.666 309.333Z" fill="black"></path>
  <path d="M264.533 316.8C272 320 281.6 318.933 284.8 315.733C289.066 312.533 282.666 309.333 270.933 310.4C259.2 310.4 256 313.6 264.533 316.8Z" fill="black"></path>
  <path d="M232.533 380.8C240 384 249.6 382.933 252.8 379.733C257.066 376.533 250.666 373.333 238.933 374.4C227.2 374.4 224 377.6 232.533 380.8Z" fill="black"></path>
  <path d="M234.667 406.4C234.667 422.4 247.467 448 257.067 448C261.334 448 270.934 439.467 276.267 427.733C285.867 410.667 283.734 406.4 261.334 403.2C246.4 400 234.667 401.067 234.667 406.4Z" fill="black"></path>
</svg>
