<?xml version="1.0" encoding="UTF-8"?>
<svg xmlns="http://www.w3.org/2000/svg" width="128" height="65" viewBox="0 0 128 65" fill="none">
  <path d="M0.96 52.6H1.98V61H0.96V52.6ZM5.28 52.6H6.54L2.904 56.536L6.72 61H5.46L1.668 56.56L5.28 52.6ZM8.58516 63.64H7.62516V55.48H8.58516V63.64ZM13.2052 58.24C13.2052 58.832 13.0812 59.344 12.8332 59.776C12.5852 60.208 12.2532 60.54 11.8372 60.772C11.4292 61.004 10.9732 61.12 10.4692 61.12C10.0132 61.12 9.60916 61.004 9.25716 60.772C8.91316 60.54 8.64116 60.208 8.44116 59.776C8.24916 59.344 8.15316 58.832 8.15316 58.24C8.15316 57.64 8.24916 57.128 8.44116 56.704C8.64116 56.272 8.91316 55.94 9.25716 55.708C9.60916 55.476 10.0132 55.36 10.4692 55.36C10.9732 55.36 11.4292 55.476 11.8372 55.708C12.2532 55.94 12.5852 56.272 12.8332 56.704C13.0812 57.128 13.2052 57.64 13.2052 58.24ZM12.2332 58.24C12.2332 57.816 12.1452 57.456 11.9692 57.16C11.8012 56.864 11.5732 56.64 11.2852 56.488C11.0052 56.336 10.6932 56.26 10.3492 56.26C10.0692 56.26 9.79316 56.336 9.52116 56.488C9.24916 56.64 9.02516 56.864 8.84916 57.16C8.67316 57.456 8.58516 57.816 8.58516 58.24C8.58516 58.664 8.67316 59.024 8.84916 59.32C9.02516 59.616 9.24916 59.84 9.52116 59.992C9.79316 60.144 10.0692 60.22 10.3492 60.22C10.6932 60.22 11.0052 60.144 11.2852 59.992C11.5732 59.84 11.8012 59.616 11.9692 59.32C12.1452 59.024 12.2332 58.664 12.2332 58.24ZM14.6609 58.48V57.664H18.3449C18.3129 57.376 18.2329 57.124 18.1049 56.908C17.9849 56.684 17.8129 56.512 17.5889 56.392C17.3729 56.264 17.1049 56.2 16.7849 56.2C16.4649 56.2 16.1729 56.268 15.9089 56.404C15.6449 56.54 15.4329 56.736 15.2729 56.992C15.1209 57.24 15.0449 57.536 15.0449 57.88L15.0209 58.24C15.0209 58.664 15.0929 59.024 15.2369 59.32C15.3809 59.616 15.5849 59.84 15.8489 59.992C16.1129 60.144 16.4249 60.22 16.7849 60.22C17.0569 60.22 17.2969 60.18 17.5049 60.1C17.7209 60.012 17.9129 59.896 18.0809 59.752C18.2489 59.6 18.3929 59.424 18.5129 59.224L19.2929 59.716C19.1089 59.996 18.9049 60.244 18.6809 60.46C18.4569 60.668 18.1849 60.832 17.8649 60.952C17.5449 61.064 17.1449 61.12 16.6649 61.12C16.1689 61.12 15.7209 60.996 15.3209 60.748C14.9289 60.5 14.6169 60.16 14.3849 59.728C14.1609 59.288 14.0489 58.792 14.0489 58.24C14.0489 58.136 14.0529 58.036 14.0609 57.94C14.0689 57.844 14.0809 57.748 14.0969 57.652C14.1769 57.196 14.3369 56.796 14.5769 56.452C14.8169 56.108 15.1249 55.84 15.5009 55.648C15.8849 55.456 16.3129 55.36 16.7849 55.36C17.3049 55.36 17.7609 55.476 18.1529 55.708C18.5449 55.94 18.8489 56.268 19.0649 56.692C19.2809 57.108 19.3889 57.608 19.3889 58.192C19.3889 58.24 19.3889 58.288 19.3889 58.336C19.3889 58.384 19.3849 58.432 19.3769 58.48H14.6609ZM25.2047 55.48V61H24.2447V56.38H21.6647V61H20.7047V55.48H25.2047ZM31.6294 56.44L27.0694 61.42L27.1294 60.04L31.6894 55.06L31.6294 56.44ZM28.0294 55.48V60.1L27.0694 61.42V55.48H28.0294ZM31.6894 55.06V61H30.7294V56.38L31.6894 55.06ZM38.7924 61L37.8924 56.62L38.4324 55.06L39.8724 61H38.7924ZM35.9124 60.172L38.4324 55.06L38.5524 56.98L36.2724 61.372L35.9124 60.172ZM36.2724 61.372L34.0284 56.98L34.1484 55.06L36.6324 60.172L36.2724 61.372ZM32.7084 61L34.1484 55.06L34.6884 56.62L33.7884 61H32.7084ZM46.8112 56.26V55.36C47.3552 55.36 47.8392 55.484 48.2632 55.732C48.6952 55.98 49.0352 56.32 49.2832 56.752C49.5392 57.184 49.6672 57.68 49.6672 58.24C49.6672 58.792 49.5392 59.288 49.2832 59.728C49.0352 60.16 48.6952 60.5 48.2632 60.748C47.8392 60.996 47.3552 61.12 46.8112 61.12C46.2752 61.12 45.7912 60.988 45.3592 60.724C44.9272 60.452 44.5832 60.048 44.3272 59.512C44.0792 58.976 43.9552 58.312 43.9552 57.52L44.9152 58.24C44.9152 58.624 44.9992 58.964 45.1672 59.26C45.3352 59.556 45.5592 59.792 45.8392 59.968C46.1272 60.136 46.4512 60.22 46.8112 60.22C47.1712 60.22 47.4912 60.136 47.7712 59.968C48.0592 59.792 48.2832 59.556 48.4432 59.26C48.6112 58.964 48.6952 58.624 48.6952 58.24C48.6952 57.856 48.6112 57.516 48.4432 57.22C48.2832 56.916 48.0592 56.68 47.7712 56.512C47.4912 56.344 47.1712 56.26 46.8112 56.26ZM44.4832 58.24C44.4832 57.792 44.5392 57.392 44.6512 57.04C44.7632 56.68 44.9232 56.376 45.1312 56.128C45.3392 55.88 45.5832 55.692 45.8632 55.564C46.1512 55.428 46.4672 55.36 46.8112 55.36V56.26C46.6032 56.26 46.3872 56.304 46.1632 56.392C45.9392 56.48 45.7312 56.608 45.5392 56.776C45.3552 56.944 45.2032 57.152 45.0832 57.4C44.9712 57.64 44.9152 57.92 44.9152 58.24H44.4832ZM43.9552 57.52C43.9552 56.768 44.0272 56.104 44.1712 55.528C44.3152 54.952 44.5672 54.464 44.9272 54.064C45.2952 53.656 45.7992 53.344 46.4392 53.128C46.9832 52.944 47.3872 52.724 47.6512 52.468C47.9232 52.204 48.0872 51.928 48.1432 51.64H49.0912C49.0512 51.992 48.9232 52.316 48.7072 52.612C48.4912 52.9 48.2072 53.152 47.8552 53.368C47.5112 53.584 47.1192 53.764 46.6792 53.908C46.1832 54.068 45.7952 54.308 45.5152 54.628C45.2432 54.948 45.0552 55.312 44.9512 55.72C44.8472 56.12 44.7952 56.52 44.7952 56.92V58.156L43.9552 57.52ZM55.3659 55.48L51.7659 63.64H50.6859L52.1979 60.22L50.0859 55.48H51.2259L52.9779 59.8L52.5819 59.752L54.2859 55.48H55.3659ZM58.5563 57.136L56.9363 60.64H55.8563L58.5563 55.06L61.2563 60.64H60.1763L58.5563 57.136ZM61.0163 61H56.1562V62.08H55.1363V60.1H61.9763V62.08H61.0163V61ZM67.7409 55.48L64.1409 63.64H63.0609L64.5729 60.22L62.4609 55.48H63.6009L65.3529 59.8L64.9569 59.752L66.6609 55.48H67.7409ZM72.9061 60.1H75.2461V55.48H76.2061V60.1H77.1661V62.08H76.3261V61H68.6461V55.48H69.6061V60.1H71.9461V55.48H72.9061V60.1ZM78.6218 58.48V57.664H82.3058C82.2738 57.376 82.1938 57.124 82.0658 56.908C81.9458 56.684 81.7738 56.512 81.5498 56.392C81.3338 56.264 81.0658 56.2 80.7458 56.2C80.4258 56.2 80.1338 56.268 79.8698 56.404C79.6058 56.54 79.3938 56.736 79.2338 56.992C79.0818 57.24 79.0058 57.536 79.0058 57.88L78.9818 58.24C78.9818 58.664 79.0538 59.024 79.1978 59.32C79.3418 59.616 79.5458 59.84 79.8098 59.992C80.0738 60.144 80.3858 60.22 80.7458 60.22C81.0178 60.22 81.2578 60.18 81.4658 60.1C81.6818 60.012 81.8738 59.896 82.0418 59.752C82.2098 59.6 82.3538 59.424 82.4738 59.224L83.2538 59.716C83.0698 59.996 82.8658 60.244 82.6418 60.46C82.4178 60.668 82.1458 60.832 81.8258 60.952C81.5058 61.064 81.1058 61.12 80.6258 61.12C80.1298 61.12 79.6818 60.996 79.2818 60.748C78.8898 60.5 78.5778 60.16 78.3458 59.728C78.1218 59.288 78.0098 58.792 78.0098 58.24C78.0098 58.136 78.0138 58.036 78.0218 57.94C78.0298 57.844 78.0418 57.748 78.0578 57.652C78.1378 57.196 78.2978 56.796 78.5378 56.452C78.7778 56.108 79.0858 55.84 79.4618 55.648C79.8458 55.456 80.2738 55.36 80.7458 55.36C81.2658 55.36 81.7218 55.476 82.1138 55.708C82.5058 55.94 82.8098 56.268 83.0258 56.692C83.2418 57.108 83.3498 57.608 83.3498 58.192C83.3498 58.24 83.3498 58.288 83.3498 58.336C83.3498 58.384 83.3458 58.432 83.3378 58.48H78.6218ZM84.7976 58.48V57.664H88.4816C88.4496 57.376 88.3696 57.124 88.2416 56.908C88.1216 56.684 87.9496 56.512 87.7256 56.392C87.5096 56.264 87.2416 56.2 86.9216 56.2C86.6016 56.2 86.3096 56.268 86.0456 56.404C85.7816 56.54 85.5696 56.736 85.4096 56.992C85.2576 57.24 85.1816 57.536 85.1816 57.88L85.1576 58.24C85.1576 58.664 85.2296 59.024 85.3736 59.32C85.5176 59.616 85.7216 59.84 85.9856 59.992C86.2496 60.144 86.5616 60.22 86.9216 60.22C87.1936 60.22 87.4336 60.18 87.6416 60.1C87.8576 60.012 88.0496 59.896 88.2176 59.752C88.3856 59.6 88.5296 59.424 88.6496 59.224L89.4296 59.716C89.2456 59.996 89.0416 60.244 88.8176 60.46C88.5936 60.668 88.3216 60.832 88.0016 60.952C87.6816 61.064 87.2816 61.12 86.8016 61.12C86.3056 61.12 85.8576 60.996 85.4576 60.748C85.0656 60.5 84.7536 60.16 84.5216 59.728C84.2976 59.288 84.1856 58.792 84.1856 58.24C84.1856 58.136 84.1896 58.036 84.1976 57.94C84.2056 57.844 84.2176 57.748 84.2336 57.652C84.3136 57.196 84.4736 56.796 84.7136 56.452C84.9536 56.108 85.2616 55.84 85.6376 55.648C86.0216 55.456 86.4496 55.36 86.9216 55.36C87.4416 55.36 87.8976 55.476 88.2896 55.708C88.6816 55.94 88.9856 56.268 89.2016 56.692C89.4176 57.108 89.5256 57.608 89.5256 58.192C89.5256 58.24 89.5256 58.288 89.5256 58.336C89.5256 58.384 89.5216 58.432 89.5136 58.48H84.7976ZM95.0031 58.12H96.5991C96.9831 58.12 97.3271 58.16 97.6311 58.24C97.9351 58.32 98.1751 58.46 98.3511 58.66C98.5271 58.86 98.6151 59.14 98.6151 59.5C98.6151 59.916 98.4751 60.272 98.1951 60.568C97.9231 60.856 97.4711 61 96.8391 61H95.0031V60.16H96.5991C96.9591 60.16 97.2231 60.084 97.3911 59.932C97.5671 59.78 97.6551 59.596 97.6551 59.38C97.6551 59.268 97.6311 59.168 97.5831 59.08C97.5431 58.992 97.4791 58.912 97.3911 58.84C97.3111 58.768 97.2031 58.716 97.0671 58.684C96.9391 58.644 96.7831 58.624 96.5991 58.624H95.0031V58.12ZM95.0031 58.36V57.796H96.4791C96.6231 57.796 96.7511 57.78 96.8631 57.748C96.9831 57.708 97.0831 57.652 97.1631 57.58C97.2431 57.508 97.3031 57.428 97.3431 57.34C97.3911 57.244 97.4151 57.144 97.4151 57.04C97.4151 56.824 97.3311 56.652 97.1631 56.524C96.9951 56.388 96.7671 56.32 96.4791 56.32H95.0031V55.48H96.4791C96.8231 55.48 97.1351 55.532 97.4151 55.636C97.7031 55.732 97.9351 55.892 98.1111 56.116C98.2871 56.332 98.3751 56.62 98.3751 56.98C98.3751 57.292 98.2871 57.552 98.1111 57.76C97.9351 57.96 97.7031 58.112 97.4151 58.216C97.1351 58.312 96.8231 58.36 96.4791 58.36H95.0031ZM94.4391 55.48H95.3991V61H94.4391V55.48ZM105.121 61L104.221 56.62L104.761 55.06L106.201 61H105.121ZM102.241 60.172L104.761 55.06L104.881 56.98L102.601 61.372L102.241 60.172ZM102.601 61.372L100.357 56.98L100.477 55.06L102.961 60.172L102.601 61.372ZM99.0366 61L100.477 55.06L101.017 56.62L100.117 61H99.0366ZM107.298 58.48V57.664H110.982C110.95 57.376 110.87 57.124 110.742 56.908C110.622 56.684 110.45 56.512 110.226 56.392C110.01 56.264 109.742 56.2 109.422 56.2C109.102 56.2 108.81 56.268 108.546 56.404C108.282 56.54 108.07 56.736 107.91 56.992C107.758 57.24 107.682 57.536 107.682 57.88L107.658 58.24C107.658 58.664 107.73 59.024 107.874 59.32C108.018 59.616 108.222 59.84 108.486 59.992C108.75 60.144 109.062 60.22 109.422 60.22C109.694 60.22 109.934 60.18 110.142 60.1C110.358 60.012 110.55 59.896 110.718 59.752C110.886 59.6 111.03 59.424 111.15 59.224L111.93 59.716C111.746 59.996 111.542 60.244 111.318 60.46C111.094 60.668 110.822 60.832 110.502 60.952C110.182 61.064 109.782 61.12 109.302 61.12C108.806 61.12 108.358 60.996 107.958 60.748C107.566 60.5 107.254 60.16 107.022 59.728C106.798 59.288 106.686 58.792 106.686 58.24C106.686 58.136 106.69 58.036 106.698 57.94C106.706 57.844 106.718 57.748 106.734 57.652C106.814 57.196 106.974 56.796 107.214 56.452C107.454 56.108 107.762 55.84 108.138 55.648C108.522 55.456 108.95 55.36 109.422 55.36C109.942 55.36 110.398 55.476 110.79 55.708C111.182 55.94 111.486 56.268 111.702 56.692C111.918 57.108 112.026 57.608 112.026 58.192C112.026 58.24 112.026 58.288 112.026 58.336C112.026 58.384 112.022 58.432 112.014 58.48H107.298ZM113.773 58.24C113.773 58.624 113.853 58.964 114.013 59.26C114.181 59.556 114.405 59.792 114.685 59.968C114.973 60.136 115.297 60.22 115.657 60.22C115.953 60.22 116.229 60.176 116.485 60.088C116.749 59.992 116.977 59.868 117.169 59.716C117.361 59.556 117.497 59.388 117.577 59.212V60.412C117.385 60.636 117.109 60.812 116.749 60.94C116.397 61.06 116.033 61.12 115.657 61.12C115.121 61.12 114.637 60.996 114.205 60.748C113.773 60.5 113.429 60.16 113.173 59.728C112.925 59.288 112.801 58.792 112.801 58.24C112.801 57.68 112.925 57.184 113.173 56.752C113.429 56.32 113.773 55.98 114.205 55.732C114.637 55.484 115.121 55.36 115.657 55.36C116.033 55.36 116.397 55.424 116.749 55.552C117.109 55.672 117.385 55.844 117.577 56.068V57.268C117.497 57.084 117.361 56.916 117.169 56.764C116.977 56.612 116.749 56.492 116.485 56.404C116.229 56.308 115.953 56.26 115.657 56.26C115.297 56.26 114.973 56.344 114.685 56.512C114.405 56.68 114.181 56.916 114.013 57.22C113.853 57.516 113.773 57.856 113.773 58.24ZM118.232 55.48H121.472V56.38H118.232V55.48ZM119.372 55.72H120.332V61H119.372V55.72ZM122.391 58.48V57.664H126.075C126.043 57.376 125.963 57.124 125.835 56.908C125.715 56.684 125.543 56.512 125.319 56.392C125.103 56.264 124.835 56.2 124.515 56.2C124.195 56.2 123.903 56.268 123.639 56.404C123.375 56.54 123.163 56.736 123.003 56.992C122.851 57.24 122.775 57.536 122.775 57.88L122.751 58.24C122.751 58.664 122.823 59.024 122.967 59.32C123.111 59.616 123.315 59.84 123.579 59.992C123.843 60.144 124.155 60.22 124.515 60.22C124.787 60.22 125.027 60.18 125.235 60.1C125.451 60.012 125.643 59.896 125.811 59.752C125.979 59.6 126.123 59.424 126.243 59.224L127.023 59.716C126.839 59.996 126.635 60.244 126.411 60.46C126.187 60.668 125.915 60.832 125.595 60.952C125.275 61.064 124.875 61.12 124.395 61.12C123.899 61.12 123.451 60.996 123.051 60.748C122.659 60.5 122.347 60.16 122.115 59.728C121.891 59.288 121.779 58.792 121.779 58.24C121.779 58.136 121.783 58.036 121.791 57.94C121.799 57.844 121.811 57.748 121.827 57.652C121.907 57.196 122.067 56.796 122.307 56.452C122.547 56.108 122.855 55.84 123.231 55.648C123.615 55.456 124.043 55.36 124.515 55.36C125.035 55.36 125.491 55.476 125.883 55.708C126.275 55.94 126.579 56.268 126.795 56.692C127.011 57.108 127.119 57.608 127.119 58.192C127.119 58.24 127.119 58.288 127.119 58.336C127.119 58.384 127.115 58.432 127.107 58.48H122.391Z" fill="#2A9E44"></path>
  <path d="M53.7631 15.2008C53.6766 15.2753 53.5901 15.3459 53.5056 15.4224C53.2088 15.6795 52.9199 15.9502 52.6447 16.2327C52.5838 16.2935 52.5249 16.3583 52.4659 16.4211C52.3912 16.4976 52.3204 16.5741 52.2497 16.6526C52.1514 16.7585 52.0571 16.8664 51.9647 16.9763C51.8546 17.1038 51.7485 17.2313 51.6424 17.3608C51.3554 17.7316 51.0861 18.1063 50.8405 18.4869C50.7933 18.5576 50.75 18.6301 50.7048 18.7008C50.5653 18.9244 50.4316 19.15 50.3058 19.3776C50.2567 19.462 50.2095 19.5444 50.1683 19.6307C50.0877 19.7798 50.011 19.9309 49.9363 20.08C49.8892 20.1742 49.8459 20.2664 49.8027 20.3625C49.7712 20.4272 49.7418 20.492 49.7142 20.5567C49.6494 20.6999 49.5885 20.8432 49.5295 20.9883C49.4627 21.1512 49.4017 21.3121 49.3428 21.4749H50.4768C50.7638 21.4749 51.0449 21.4867 51.3141 21.5141C51.8861 20.1604 52.7076 18.8832 53.7749 17.7551V15.1909C53.7749 15.1909 53.7651 15.1988 53.7592 15.2027L53.7631 15.2008ZM79.5598 13.9962L78.0169 15.5343L74.4044 11.9283L75.9964 10.3392C74.6461 9.25818 73.1936 8.36944 71.6763 7.67689V17.1175C71.8041 17.2333 71.9299 17.353 72.0556 17.4785C74.3867 19.8053 75.6269 22.809 75.7723 25.8538L77.4862 24.6022L77.7005 24.4472L78.5653 23.8135L78.5692 23.8095L81.2992 21.8182C81.5999 21.5965 81.9478 21.4788 82.3095 21.4788H82.8971C82.9856 21.4788 83.0701 21.4827 83.1507 21.4906C82.4922 18.8283 81.2953 16.2739 79.5617 13.9962H79.5598ZM82.5099 32.2771C81.4879 32.2771 80.8 31.5904 80.8 30.5702V26.8328L78.7402 28.3415H78.7382L78.6301 28.42L77.5786 29.191L77.3467 29.3597L74.8879 31.1588C74.2687 32.7244 73.3214 34.1939 72.0537 35.4593C69.5222 37.9862 66.1887 39.2281 62.871 39.181C62.7846 39.181 62.6961 39.179 62.6096 39.1751C59.4983 39.0692 56.4184 37.8312 54.0422 35.4573C52.1573 33.5759 50.9839 31.249 50.5299 28.8163H48.8829C49.4902 29.0635 49.8656 29.6364 49.8656 30.3917V30.5683C49.8656 31.0313 49.7221 31.4276 49.4745 31.7199C49.4253 31.7788 49.3703 31.8298 49.3153 31.8788C49.0224 32.1339 48.6273 32.2771 48.1615 32.2771H46.9154C45.5258 32.2771 44.4055 32.0907 43.4857 31.7101C43.2911 31.6297 43.1123 31.5433 42.9472 31.4492C43.6508 34.2861 44.9618 37.0013 46.884 39.3909L48.2795 37.998L51.8959 41.6078L50.5496 42.9517C57.9554 48.5628 68.28 48.5333 75.6603 42.8654L74.3985 41.6059L78.0149 37.994L79.2984 39.2771C80.9867 37.1504 82.1955 34.7667 82.9246 32.2751H82.5099V32.2771ZM50.2154 10.247L51.9018 11.9283L48.2834 15.5382L46.6226 13.8804C44.6296 16.4662 43.3324 19.4149 42.731 22.4755C42.9432 22.3381 43.181 22.2086 43.4503 22.0909C44.3859 21.6809 45.5239 21.4749 46.8368 21.4749H50.4768C50.7638 21.4749 51.0449 21.4867 51.3141 21.5141C51.8861 20.1604 52.7076 18.8832 53.7749 17.7551V7.98491C52.5307 8.60487 51.3357 9.36216 50.2135 10.2489L50.2154 10.247ZM53.7631 15.2008C53.6766 15.2753 53.5901 15.3459 53.5056 15.4224C53.2088 15.6795 52.9199 15.9502 52.6447 16.2327C52.5838 16.2935 52.5249 16.3583 52.4659 16.4211C52.3912 16.4976 52.3204 16.5741 52.2497 16.6526C52.1514 16.7585 52.0571 16.8664 51.9647 16.9763C51.8546 17.1038 51.7485 17.2313 51.6424 17.3608C51.3554 17.7316 51.0861 18.1063 50.8405 18.4869C50.7933 18.5576 50.75 18.6301 50.7048 18.7008C50.5653 18.9244 50.4316 19.15 50.3058 19.3776C50.2567 19.462 50.2095 19.5444 50.1683 19.6307C50.0877 19.7798 50.011 19.9309 49.9363 20.08C49.8892 20.1742 49.8459 20.2664 49.8027 20.3625C49.7712 20.4272 49.7418 20.492 49.7142 20.5567C49.6494 20.6999 49.5885 20.8432 49.5295 20.9883C49.4627 21.1512 49.4017 21.3121 49.3428 21.4749H50.4768C50.7638 21.4749 51.0449 21.4867 51.3141 21.5141C51.8861 20.1604 52.7076 18.8832 53.7749 17.7551V15.1909C53.7749 15.1909 53.7651 15.1988 53.7592 15.2027L53.7631 15.2008Z" fill="url(#paint0_radial_1318_104)"></path>
  <path d="M49.3446 21.4729H49.1362C49.8045 19.6523 50.8717 17.9023 52.3773 16.323C52.8156 15.8717 53.2814 15.4499 53.7767 15.0615V15.189C53.7767 15.189 53.7669 15.1968 53.761 15.2008C53.6725 15.2714 53.588 15.3459 53.5035 15.4224C53.2067 15.6795 52.9178 15.9502 52.6426 16.2327C52.5817 16.2935 52.5227 16.3583 52.4638 16.4211C52.3891 16.4976 52.3183 16.5741 52.2476 16.6526C52.1493 16.7585 52.0549 16.8664 51.9626 16.9763C51.8525 17.1038 51.7464 17.2313 51.6402 17.3608C51.3533 17.7316 51.084 18.1063 50.8383 18.4869C50.7911 18.5576 50.7479 18.6301 50.7027 18.7008C50.5632 18.9244 50.4295 19.15 50.3037 19.3776C50.2546 19.462 50.2074 19.5444 50.1661 19.6307C50.0855 19.7798 50.0089 19.9309 49.9342 20.08C49.887 20.1742 49.8438 20.2664 49.8006 20.3625C49.7691 20.4272 49.7396 20.492 49.7121 20.5567C49.6473 20.6999 49.5863 20.8432 49.5274 20.9883C49.4605 21.1512 49.3996 21.3121 49.3406 21.4749L49.3446 21.4729Z" fill="white"></path>
  <path d="M63.0459 41.1233C56.3751 41.1448 51.3848 37.0955 49.3152 31.8788C49.3722 31.8298 49.4253 31.7788 49.4744 31.7199C51.5047 36.9483 56.4773 41.0055 63.0439 41.1233H63.0459Z" fill="white"></path>
  <path d="M77.3467 29.3597L77.5786 29.191C77.3467 30.4054 76.9496 31.6179 76.3757 32.8068C74.9429 35.783 72.4704 38.2197 69.4927 39.6401C70.955 38.8946 72.2915 37.9077 73.4354 36.7404C75.566 34.5235 76.8297 31.9691 77.3467 29.3597Z" fill="white"></path>
  <path d="M71.6763 14.7083V14.5161C74.933 16.8487 77.1324 20.4704 77.6984 24.4472L77.4842 24.6022C76.9575 20.7176 74.8859 17.0979 71.6763 14.7083Z" fill="white"></path>
  <path d="M53.7768 13.6509V13.9118C51.2276 15.7854 49.2444 18.4124 48.1831 21.4729H48.0337C49.0774 18.2966 51.1273 15.5716 53.7787 13.6509H53.7768Z" fill="white"></path>
  <path d="M76.3777 18.0946C75.389 16.578 74.139 15.2341 72.7062 14.1374C72.374 13.8804 72.0301 13.6352 71.6763 13.4056V13.2506C72.0556 13.5018 72.4212 13.7686 72.775 14.0511C74.196 15.1851 75.4205 16.5584 76.3777 18.0946Z" fill="white"></path>
  <path d="M78.5632 23.8154C78.5534 23.7409 78.5416 23.6663 78.5278 23.5918C78.5436 23.6663 78.5553 23.737 78.5671 23.8095L78.5632 23.8135V23.8154Z" fill="white"></path>
  <path d="M78.7382 28.3415C77.7378 37.5271 68.5984 44.329 58.9735 41.7432C55.5497 40.8231 52.4875 38.7003 50.4001 35.8477C51.4733 37.2407 52.7764 38.4551 54.2367 39.4321C64.4611 46.1241 77.209 39.4223 78.6281 28.422L78.7362 28.3435L78.7382 28.3415Z" fill="white"></path>
  <path d="M70.2985 8.8089V11.2593C69.4415 10.9395 68.4903 10.9925 67.6864 11.3653C67.6097 11.4006 67.537 11.4398 67.4623 11.481C67.1321 11.6654 66.8353 11.9087 66.5877 12.2049C66.568 12.2265 66.5484 12.2501 66.5307 12.2736C66.5012 12.3109 66.4717 12.3482 66.4442 12.3874C66.3165 12.5659 66.2025 12.9485 65.9863 12.976H59.4511C59.3253 12.9485 59.1386 12.5247 59.0384 12.3874C58.8123 12.0774 58.5391 11.8184 58.2345 11.6144C58.1559 11.5634 58.0753 11.5144 57.9927 11.4673C57.1554 11.0043 56.1295 10.9179 55.1841 11.2613V8.81087C55.2234 8.54405 55.4671 8.18698 55.7442 8.13205C56.1196 8.05554 57.01 8.10262 57.4581 8.09085C57.6959 8.08497 57.9495 8.15167 58.2109 8.07123H61.2416C61.2593 8.23995 61.1807 8.71866 61.336 8.81283L64.1191 8.82852C64.3176 8.76182 64.2272 8.2478 64.2468 8.07516C65.4615 8.09674 66.6801 8.04573 67.8947 8.07319C68.4038 8.08497 69.188 8.06535 69.6597 8.12224C69.9565 8.15756 70.3004 8.52051 70.3004 8.81479L70.2985 8.8089Z" fill="url(#paint1_linear_1318_104)"></path>
  <path d="M65.0566 14.0256V20.9962L60.4299 19.8053V13.9765L60.5007 13.9059H65.0055C64.9918 13.953 65.0547 14.0099 65.0547 14.0256H65.0566Z" fill="#299E44"></path>
  <path d="M65.0566 33.5052L65.033 34.1978L62.871 38.7965L62.7433 39.0711L62.6116 38.7925L60.5027 34.3606L60.4299 32.3144L65.0566 33.5052Z" fill="#299E44"></path>
  <path d="M65.0566 29.8639V31.4099L60.4299 30.2191V28.6495L64.976 29.8012L65.0566 29.8639Z" fill="#299E44"></path>
  <path d="M65.033 27.698L60.4791 26.5346C60.3317 26.4208 60.5164 25.1927 60.481 24.9376L65.0114 26.1501L65.033 27.698Z" fill="#299E44"></path>
  <path d="M64.9896 33.0736L60.2528 31.8003C59.6829 31.614 59.7536 30.7586 60.3216 30.6585C60.4258 30.6409 60.5241 30.6389 60.6243 30.6703L65.2451 31.9102C65.8839 32.2163 65.6873 33.0717 64.9896 33.0736Z" fill="#299E44"></path>
  <path d="M65.6147 21.9359C65.3376 21.9163 65.0428 21.9085 64.7283 21.9085H61.9983C61.8233 21.8673 61.6523 21.8241 61.4794 21.7809C61.0882 21.6809 60.7109 21.5671 60.3453 21.4376C60.2451 21.4023 60.0918 21.3395 60.019 21.265C59.6299 20.8824 59.962 20.2291 60.4907 20.2448L65.259 21.5298C65.3985 21.5887 65.4968 21.677 65.5538 21.7809C65.5833 21.83 65.6029 21.881 65.6147 21.9359Z" fill="#299E44"></path>
  <path d="M65.5597 25.4163C65.5381 25.4615 65.5047 25.5027 65.4693 25.5399C65.312 25.6988 65.0664 25.7342 64.8521 25.689C63.6945 25.2908 62.3521 25.0828 61.1453 24.7454H64.7263C65.1686 24.7454 65.4025 24.7611 65.5145 24.7748C65.5341 24.8003 65.5499 24.8219 65.5597 24.8454C65.654 25.02 65.6599 25.2378 65.5597 25.4163Z" fill="#299E44"></path>
  <path d="M65.5596 29.0812C65.4417 29.293 65.1901 29.4402 64.8442 29.3617L60.1919 28.1022C59.6829 27.8707 59.7733 27.0859 60.3216 26.9937C60.5103 26.9643 60.6754 27.0192 60.8582 27.0545C62.2989 27.3488 63.769 27.9158 65.2117 28.2317C65.3807 28.2984 65.4947 28.4004 65.5615 28.522C65.6657 28.6986 65.6579 28.9105 65.5615 29.0812H65.5596Z" fill="#299E44"></path>
  <path d="M65.0566 14.0256V20.9962L60.4299 19.8053V13.9765L60.5007 13.9059H65.0055C64.9918 13.953 65.0547 14.0099 65.0547 14.0256H65.0566Z" fill="url(#paint2_linear_1318_104)"></path>
  <path d="M65.0566 14.0256V20.9962L60.4299 19.8053V13.9765L60.5007 13.9059H65.0055C64.9918 13.953 65.0547 14.0099 65.0547 14.0256H65.0566Z" fill="url(#paint3_linear_1318_104)"></path>
  <path d="M65.0566 33.5052L65.033 34.1978L62.871 38.7965L62.7433 39.0711L62.6116 38.7925L60.5027 34.3606L60.4299 32.3144L65.0566 33.5052Z" fill="url(#paint4_linear_1318_104)"></path>
  <path d="M65.0566 33.5052L65.033 34.1978L62.871 38.7965L62.7433 39.0711L62.6116 38.7925L60.5027 34.3606L60.4299 32.3144L65.0566 33.5052Z" fill="url(#paint5_linear_1318_104)"></path>
  <path d="M65.0566 29.8639V31.4099L60.4299 30.2191V28.6495L64.976 29.8012L65.0566 29.8639Z" fill="url(#paint6_linear_1318_104)"></path>
  <path d="M65.0566 29.8639V31.4099L60.4299 30.2191V28.6495L64.976 29.8012L65.0566 29.8639Z" fill="url(#paint7_linear_1318_104)"></path>
  <path d="M65.033 27.698L60.4791 26.5346C60.3317 26.4208 60.5164 25.1927 60.481 24.9376L65.0114 26.1501L65.033 27.698Z" fill="url(#paint8_linear_1318_104)"></path>
  <path d="M65.033 27.698L60.4791 26.5346C60.3317 26.4208 60.5164 25.1927 60.481 24.9376L65.0114 26.1501L65.033 27.698Z" fill="url(#paint9_linear_1318_104)"></path>
  <path d="M64.9896 33.0736L60.2528 31.8003C59.6829 31.614 59.7536 30.7586 60.3216 30.6585C60.4258 30.6409 60.5241 30.6389 60.6243 30.6703L65.2451 31.9102C65.8839 32.2163 65.6873 33.0717 64.9896 33.0736Z" fill="url(#paint10_linear_1318_104)"></path>
  <path d="M64.9896 33.0736L60.2528 31.8003C59.6829 31.614 59.7536 30.7586 60.3216 30.6585C60.4258 30.6409 60.5241 30.6389 60.6243 30.6703L65.2451 31.9102C65.8839 32.2163 65.6873 33.0717 64.9896 33.0736Z" fill="url(#paint11_linear_1318_104)"></path>
  <path d="M65.6147 21.9359C65.3376 21.9163 65.0428 21.9085 64.7283 21.9085H61.9983C61.8233 21.8673 61.6523 21.8241 61.4794 21.7809C61.0882 21.6809 60.7109 21.5671 60.3453 21.4376C60.2451 21.4023 60.0918 21.3395 60.019 21.265C59.6299 20.8824 59.962 20.2291 60.4907 20.2448L65.259 21.5298C65.3985 21.5887 65.4968 21.677 65.5538 21.7809C65.5833 21.83 65.6029 21.881 65.6147 21.9359Z" fill="url(#paint12_linear_1318_104)"></path>
  <path d="M65.6147 21.9359C65.3376 21.9163 65.0428 21.9085 64.7283 21.9085H61.9983C61.8233 21.8673 61.6523 21.8241 61.4794 21.7809C61.0882 21.6809 60.7109 21.5671 60.3453 21.4376C60.2451 21.4023 60.0918 21.3395 60.019 21.265C59.6299 20.8824 59.962 20.2291 60.4907 20.2448L65.259 21.5298C65.3985 21.5887 65.4968 21.677 65.5538 21.7809C65.5833 21.83 65.6029 21.881 65.6147 21.9359Z" fill="url(#paint13_linear_1318_104)"></path>
  <path d="M65.5597 25.4163C65.5381 25.4615 65.5047 25.5027 65.4693 25.5399C65.312 25.6988 65.0664 25.7342 64.8521 25.689C63.6945 25.2908 62.3521 25.0828 61.1453 24.7454H64.7263C65.1686 24.7454 65.4025 24.7611 65.5145 24.7748C65.5341 24.8003 65.5499 24.8219 65.5597 24.8454C65.654 25.02 65.6599 25.2378 65.5597 25.4163Z" fill="url(#paint14_linear_1318_104)"></path>
  <path d="M65.5597 25.4163C65.5381 25.4615 65.5047 25.5027 65.4693 25.5399C65.312 25.6988 65.0664 25.7342 64.8521 25.689C63.6945 25.2908 62.3521 25.0828 61.1453 24.7454H64.7263C65.1686 24.7454 65.4025 24.7611 65.5145 24.7748C65.5341 24.8003 65.5499 24.8219 65.5597 24.8454C65.654 25.02 65.6599 25.2378 65.5597 25.4163Z" fill="url(#paint15_linear_1318_104)"></path>
  <path d="M65.5596 29.0812C65.4417 29.293 65.1901 29.4402 64.8442 29.3617L60.1919 28.1022C59.6829 27.8707 59.7733 27.0859 60.3216 26.9937C60.5103 26.9643 60.6754 27.0192 60.8582 27.0545C62.2989 27.3488 63.769 27.9158 65.2117 28.2317C65.3807 28.2984 65.4947 28.4004 65.5615 28.522C65.6657 28.6986 65.6579 28.9105 65.5615 29.0812H65.5596Z" fill="url(#paint16_linear_1318_104)"></path>
  <path d="M65.5596 29.0812C65.4417 29.293 65.1901 29.4402 64.8442 29.3617L60.1919 28.1022C59.6829 27.8707 59.7733 27.0859 60.3216 26.9937C60.5103 26.9643 60.6754 27.0192 60.8582 27.0545C62.2989 27.3488 63.769 27.9158 65.2117 28.2317C65.3807 28.2984 65.4947 28.4004 65.5615 28.522C65.6657 28.6986 65.6579 28.9105 65.5615 29.0812H65.5596Z" fill="url(#paint17_linear_1318_104)"></path>
  <path d="M24.9122 29.9267L16.6926 25.587L24.6449 21.4337C24.9692 21.265 25.1323 21.0315 25.1323 20.7392C25.1323 20.2958 24.8572 20.0721 24.3088 20.0721H23.5364C23.4656 20.0721 23.3516 20.0996 23.1944 20.1506L14.8864 24.5649V20.7922C14.8864 20.3115 14.6427 20.0741 14.1572 20.0741H13.601C13.1194 20.0741 12.8777 20.3115 12.8777 20.7922V30.5722C12.8777 31.0548 13.1194 31.2981 13.601 31.2981H14.1572C14.6446 31.2981 14.8864 31.0548 14.8864 30.5722V26.6661L23.5089 31.2098C23.6189 31.2687 23.7349 31.2981 23.8509 31.2981H24.5781C25.1284 31.2981 25.4036 31.0744 25.4036 30.6311C25.4036 30.3387 25.2385 30.1053 24.9122 29.9287V29.9267Z" fill="#1D1D1B"></path>
  <path d="M35.1287 22.4617H32.0252C30.7398 22.4617 29.761 22.5971 29.0947 22.8639C28.0845 23.2739 27.5774 24.0155 27.5774 25.0887V33.0206C27.5774 33.4993 27.8152 33.7367 28.2968 33.7367H28.8058C29.2854 33.7367 29.5232 33.4993 29.5232 33.0206V31.2255H35.6024C38.409 31.2255 39.8124 30.3132 39.8124 28.4847V25.0612C39.8124 23.3269 38.2518 22.4598 35.1267 22.4598L35.1287 22.4617ZM37.841 28.5102C37.841 29.2381 37.0961 29.605 35.6043 29.605H29.5252V25.1299C29.5252 24.4354 30.388 24.0901 32.1137 24.0901H35.1483C35.9129 24.0901 36.4495 24.1195 36.7541 24.1784C37.4794 24.3177 37.841 24.6198 37.841 25.0887V28.5122V28.5102Z" fill="#1D1D1B"></path>
  <path d="M53.0163 22.9522C52.4267 22.6756 51.7407 22.5127 50.9585 22.4696C50.8032 22.4598 50.644 22.4539 50.4789 22.4539H46.8388C45.6596 22.4539 44.6611 22.6304 43.8474 22.9856C43.2086 23.2681 42.7546 23.633 42.4814 24.0901C42.277 24.4295 42.1748 24.816 42.1748 25.2535V28.5024C42.1748 29.0596 42.3281 29.5344 42.6367 29.9287C42.9138 30.2897 43.3266 30.584 43.869 30.8076C44.6572 31.1333 45.6753 31.2981 46.9194 31.2981H48.1655C48.6254 31.2981 48.8633 31.0744 48.8829 30.633C48.8849 30.6114 48.8849 30.5938 48.8849 30.5722V30.3956C48.8849 30.1288 48.8102 29.9346 48.6667 29.8188C48.5488 29.7188 48.3817 29.6697 48.1655 29.6697H46.7111C45.0267 29.6697 44.1835 29.0596 44.1835 27.8393H53.8673C54.229 27.8393 54.4098 27.5725 54.4098 27.0349V24.9082C54.4098 24.045 53.946 23.3917 53.0163 22.9561V22.9522ZM52.5131 26.1462H44.1186V25.1358C44.1186 24.4511 45.0994 24.1078 47.059 24.1078H49.8833C50.0917 24.1078 50.3059 24.1195 50.5241 24.147C50.8051 24.1764 51.0941 24.2274 51.3889 24.3C52.1377 24.4825 52.5112 24.7375 52.5112 25.0671V26.1462H52.5131Z" fill="#1D1D1B"></path>
  <path d="M68.3451 23.2229C67.8439 22.7148 66.7137 22.4598 64.9606 22.4598H60.5481C58.8283 22.4598 57.7021 22.7207 57.1714 23.2406C56.857 23.5506 56.6978 24.1254 56.6978 24.973V30.5702C56.6978 31.0529 56.9395 31.2961 57.4171 31.2961H57.9262C58.4057 31.2961 58.6436 31.0529 58.6436 30.5702V24.9573C58.6436 24.5727 58.8657 24.3196 59.302 24.196C59.5359 24.1313 59.9526 24.0979 60.556 24.0979H64.9606C65.6092 24.0979 66.018 24.1333 66.187 24.196C66.6017 24.353 66.812 24.6041 66.812 24.9494V30.5702C66.812 31.0529 67.0538 31.2961 67.5392 31.2961H68.0483C68.5318 31.2961 68.7755 31.0529 68.7755 30.5702V24.9573C68.7755 24.0881 68.632 23.5094 68.3451 23.2249V23.2229Z" fill="#1D1D1B"></path>
  <path d="M83.3809 22.5441C83.2551 22.4872 83.0939 22.4598 82.8973 22.4598H82.3097C82.1564 22.4598 82.0149 22.5088 81.8792 22.6089L78.7306 24.9082L78.6991 24.9298L77.8147 25.5772L77.5965 25.7361L75.7726 27.0663L73.3393 28.8418V23.1837C73.3393 22.7011 73.0956 22.4578 72.6121 22.4578H72.1286C71.6451 22.4578 71.4014 22.7011 71.4014 23.1837V30.635C71.4014 31.0744 71.6687 31.2922 72.2072 31.2922H72.8145C72.9639 31.2922 73.1054 31.2451 73.2351 31.1529L75.407 29.5638L77.5493 27.9943L77.7754 27.8275L78.7463 27.1193L78.8269 27.0584L81.7829 24.8945V30.5702C81.7829 31.0529 82.0267 31.2961 82.5102 31.2961H82.9937C83.0625 31.2961 83.1293 31.2922 83.1882 31.2785C83.542 31.2216 83.7209 30.9842 83.7209 30.5702V23.1013C83.7209 22.8266 83.6069 22.6403 83.3789 22.5441H83.3809Z" fill="#1D1D1B"></path>
  <path d="M98.1847 20.4998C97.4496 20.2134 96.2998 20.0702 94.7392 20.0702H91.5375C88.0763 20.0702 86.3467 21.0864 86.3467 23.117V28.2905C86.3467 28.7869 86.4764 29.2342 86.7398 29.6383C87.4591 30.7429 89.0629 31.2942 91.5473 31.2942H94.7392C98.2122 31.2942 99.9496 30.2916 99.9496 28.2807V23.117C99.9496 21.8261 99.36 20.953 98.1847 20.4998ZM97.8938 28.2395C97.8938 29.1577 96.8599 29.6168 94.7903 29.6168H91.5296C89.4403 29.6168 88.3986 29.1577 88.3986 28.2395V23.1641C88.3986 22.2165 89.4403 21.7437 91.5296 21.7437H94.7844C96.858 21.7437 97.8957 22.2165 97.8957 23.1641V28.2395H97.8938Z" fill="#1D1D1B"></path>
  <path d="M115.536 20.0702H114.938C114.455 20.0702 114.211 20.3076 114.211 20.7882V28.6044L104.765 20.5763C104.641 20.4704 104.498 20.3723 104.335 20.2801C103.989 20.0819 103.676 19.9799 103.395 19.9799C103.2 19.9799 103.026 20.027 102.868 20.1192C102.516 20.3252 102.342 20.5508 102.342 20.8039V30.5663C102.342 31.0489 102.579 31.2922 103.059 31.2922H103.666C104.15 31.2922 104.393 31.0489 104.393 30.5643V22.7011L113.959 30.8312C114.136 30.9783 114.24 31.0646 114.276 31.0862C114.514 31.2589 114.724 31.3432 114.897 31.3432C115.341 31.3432 115.661 31.2765 115.856 31.1411C116.123 30.9548 116.259 30.6016 116.259 30.0837V20.7823C116.259 20.3036 116.015 20.0663 115.532 20.0663L115.536 20.0702Z" fill="#1D1D1B"></path>
  <defs>
    <radialGradient id="paint0_radial_1318_104" cx="0" cy="0" r="1" gradientUnits="userSpaceOnUse" gradientTransform="translate(63.0494 26.4696) rotate(44.948) scale(20.5558 20.5558)">
      <stop offset="0.86" stop-color="#299E44"></stop>
      <stop offset="0.9" stop-color="#8CC794"></stop>
      <stop offset="0.97" stop-color="#55AB5D"></stop>
      <stop offset="1" stop-color="#299E44"></stop>
    </radialGradient>
    <linearGradient id="paint1_linear_1318_104" x1="55.186" y1="10.5177" x2="70.2985" y2="10.5177" gradientUnits="userSpaceOnUse">
      <stop stop-color="#252525"></stop>
      <stop offset="0.48" stop-color="#828282"></stop>
      <stop offset="1" stop-color="#252525"></stop>
    </linearGradient>
    <linearGradient id="paint2_linear_1318_104" x1="59.8482" y1="26.4895" x2="65.6345" y2="26.4895" gradientUnits="userSpaceOnUse">
      <stop stop-color="#252525"></stop>
      <stop offset="0.48" stop-color="#828282"></stop>
      <stop offset="1" stop-color="#252525"></stop>
    </linearGradient>
    <linearGradient id="paint3_linear_1318_104" x1="59.8482" y1="26.4895" x2="65.6345" y2="26.4895" gradientUnits="userSpaceOnUse">
      <stop stop-color="#252525"></stop>
      <stop offset="0.48" stop-color="#828282"></stop>
      <stop offset="1" stop-color="#252525"></stop>
    </linearGradient>
    <linearGradient id="paint4_linear_1318_104" x1="59.8482" y1="26.4895" x2="65.6345" y2="26.4895" gradientUnits="userSpaceOnUse">
      <stop stop-color="#252525"></stop>
      <stop offset="0.48" stop-color="#828282"></stop>
      <stop offset="1" stop-color="#252525"></stop>
    </linearGradient>
    <linearGradient id="paint5_linear_1318_104" x1="59.8482" y1="26.4895" x2="65.6345" y2="26.4895" gradientUnits="userSpaceOnUse">
      <stop stop-color="#252525"></stop>
      <stop offset="0.48" stop-color="#828282"></stop>
      <stop offset="1" stop-color="#252525"></stop>
    </linearGradient>
    <linearGradient id="paint6_linear_1318_104" x1="59.8482" y1="26.4895" x2="65.6345" y2="26.4895" gradientUnits="userSpaceOnUse">
      <stop stop-color="#252525"></stop>
      <stop offset="0.48" stop-color="#828282"></stop>
      <stop offset="1" stop-color="#252525"></stop>
    </linearGradient>
    <linearGradient id="paint7_linear_1318_104" x1="59.8482" y1="26.4895" x2="65.6345" y2="26.4895" gradientUnits="userSpaceOnUse">
      <stop stop-color="#252525"></stop>
      <stop offset="0.48" stop-color="#828282"></stop>
      <stop offset="1" stop-color="#252525"></stop>
    </linearGradient>
    <linearGradient id="paint8_linear_1318_104" x1="59.8481" y1="26.4895" x2="65.6345" y2="26.4895" gradientUnits="userSpaceOnUse">
      <stop stop-color="#252525"></stop>
      <stop offset="0.48" stop-color="#828282"></stop>
      <stop offset="1" stop-color="#252525"></stop>
    </linearGradient>
    <linearGradient id="paint9_linear_1318_104" x1="59.8481" y1="26.4895" x2="65.6345" y2="26.4895" gradientUnits="userSpaceOnUse">
      <stop stop-color="#252525"></stop>
      <stop offset="0.48" stop-color="#828282"></stop>
      <stop offset="1" stop-color="#252525"></stop>
    </linearGradient>
    <linearGradient id="paint10_linear_1318_104" x1="59.848" y1="26.4895" x2="65.6343" y2="26.4895" gradientUnits="userSpaceOnUse">
      <stop stop-color="#252525"></stop>
      <stop offset="0.48" stop-color="#828282"></stop>
      <stop offset="1" stop-color="#252525"></stop>
    </linearGradient>
    <linearGradient id="paint11_linear_1318_104" x1="59.848" y1="26.4895" x2="65.6343" y2="26.4895" gradientUnits="userSpaceOnUse">
      <stop stop-color="#252525"></stop>
      <stop offset="0.48" stop-color="#828282"></stop>
      <stop offset="1" stop-color="#252525"></stop>
    </linearGradient>
    <linearGradient id="paint12_linear_1318_104" x1="59.848" y1="26.4895" x2="65.6344" y2="26.4895" gradientUnits="userSpaceOnUse">
      <stop stop-color="#252525"></stop>
      <stop offset="0.48" stop-color="#828282"></stop>
      <stop offset="1" stop-color="#252525"></stop>
    </linearGradient>
    <linearGradient id="paint13_linear_1318_104" x1="59.848" y1="26.4895" x2="65.6344" y2="26.4895" gradientUnits="userSpaceOnUse">
      <stop stop-color="#252525"></stop>
      <stop offset="0.48" stop-color="#828282"></stop>
      <stop offset="1" stop-color="#252525"></stop>
    </linearGradient>
    <linearGradient id="paint14_linear_1318_104" x1="59.8481" y1="26.4895" x2="65.6344" y2="26.4895" gradientUnits="userSpaceOnUse">
      <stop stop-color="#252525"></stop>
      <stop offset="0.48" stop-color="#828282"></stop>
      <stop offset="1" stop-color="#252525"></stop>
    </linearGradient>
    <linearGradient id="paint15_linear_1318_104" x1="59.8481" y1="26.4895" x2="65.6344" y2="26.4895" gradientUnits="userSpaceOnUse">
      <stop stop-color="#252525"></stop>
      <stop offset="0.48" stop-color="#828282"></stop>
      <stop offset="1" stop-color="#252525"></stop>
    </linearGradient>
    <linearGradient id="paint16_linear_1318_104" x1="59.8479" y1="26.4895" x2="65.6343" y2="26.4895" gradientUnits="userSpaceOnUse">
      <stop stop-color="#252525"></stop>
      <stop offset="0.48" stop-color="#828282"></stop>
      <stop offset="1" stop-color="#252525"></stop>
    </linearGradient>
    <linearGradient id="paint17_linear_1318_104" x1="59.8479" y1="26.4895" x2="65.6343" y2="26.4895" gradientUnits="userSpaceOnUse">
      <stop stop-color="#252525"></stop>
      <stop offset="0.48" stop-color="#828282"></stop>
      <stop offset="1" stop-color="#252525"></stop>
    </linearGradient>
  </defs>
</svg>
