<?xml version="1.0" encoding="UTF-8"?>
<svg xmlns="http://www.w3.org/2000/svg" width="220" height="98" viewBox="0 0 220 98" fill="none">
  <path d="M91.6915 28.6476C91.5289 28.7881 91.3662 28.9212 91.2073 29.0654C90.6493 29.5498 90.106 30.06 89.5886 30.5924C89.474 30.7071 89.3631 30.8291 89.2523 30.9474C89.1118 31.0916 88.9788 31.2358 88.8457 31.3837C88.661 31.5834 88.4836 31.7867 88.3099 31.9938C88.1029 32.2341 87.9033 32.4744 87.7038 32.7185C87.1642 33.4173 86.6579 34.1235 86.1959 34.8408C86.1072 34.9739 86.0259 35.1107 85.9409 35.2438C85.6785 35.6653 85.4272 36.0905 85.1907 36.5194C85.0983 36.6784 85.0096 36.8337 84.9319 36.9964C84.7804 37.2774 84.6363 37.5621 84.4959 37.8431C84.4072 38.0206 84.3258 38.1943 84.2445 38.3755C84.1854 38.4975 84.13 38.6195 84.0782 38.7416C83.9563 39.0115 83.8417 39.2814 83.7308 39.555C83.6052 39.8619 83.4906 40.1651 83.3797 40.4719H85.5122C86.0518 40.4719 86.5803 40.4941 87.0866 40.5459C88.162 37.9947 89.7068 35.5877 91.7136 33.4616V28.6291C91.7136 28.6291 91.6952 28.6439 91.6841 28.6513L91.6915 28.6476ZM140.198 26.3774L137.297 29.2762L130.504 22.4803L133.498 19.4854C130.959 17.4481 128.228 15.7732 125.374 14.468V32.26C125.615 32.4781 125.851 32.7037 126.088 32.9403C130.471 37.3254 132.803 42.9862 133.076 48.7246L136.299 46.3656L136.702 46.0735L138.328 44.8793L138.335 44.8719L143.469 41.119C144.034 40.7012 144.688 40.4793 145.368 40.4793H146.473C146.64 40.4793 146.799 40.4867 146.95 40.5015C145.712 35.4841 143.461 30.6701 140.202 26.3774H140.198ZM145.745 60.8299C143.824 60.8299 142.53 59.5358 142.53 57.6132V50.5696L138.657 53.4129H138.653L138.45 53.5608L136.473 55.0139L136.037 55.3319L131.413 58.7224C130.249 61.6729 128.468 64.4423 126.084 66.8271C121.324 71.5894 115.056 73.9299 108.818 73.8411C108.655 73.8411 108.489 73.8374 108.326 73.83C102.476 73.6304 96.6844 71.2973 92.2163 66.8234C88.672 63.2776 86.4657 58.8925 85.612 54.3077H82.5149C83.6569 54.7735 84.3628 55.8532 84.3628 57.2767V57.6095C84.3628 58.4821 84.093 59.2289 83.6274 59.7798C83.535 59.8908 83.4315 59.9869 83.328 60.0793C82.7773 60.56 82.0345 60.8299 81.1586 60.8299H78.8155C76.2026 60.8299 74.096 60.4787 72.3664 59.7614C72.0006 59.6098 71.6642 59.4471 71.3538 59.2696C72.6769 64.6161 75.1419 69.7333 78.7564 74.2367L81.3803 71.6116L88.1805 78.4148L85.6489 80.9476C99.5745 91.5222 118.988 91.4667 132.866 80.7849L130.493 78.4111L137.293 71.6042L139.707 74.0223C142.881 70.0143 145.154 65.5219 146.525 60.8262H145.745V60.8299ZM85.0206 19.3116L88.1916 22.4803L81.3877 29.2836L78.2648 26.1592C74.5174 31.0324 72.0782 36.5897 70.9473 42.3576C71.3464 42.0988 71.7936 41.8548 72.2999 41.6329C74.0591 40.8602 76.1989 40.4719 78.6677 40.4719H85.5122C86.0518 40.4719 86.5803 40.4941 87.0866 40.5459C88.162 37.9947 89.7068 35.5877 91.7136 33.4616V15.0485C89.3742 16.2169 87.1272 17.6441 85.0169 19.3153L85.0206 19.3116ZM91.6915 28.6476C91.5289 28.7881 91.3662 28.9212 91.2073 29.0654C90.6493 29.5498 90.106 30.06 89.5886 30.5924C89.474 30.7071 89.3631 30.8291 89.2523 30.9474C89.1118 31.0916 88.9788 31.2358 88.8457 31.3837C88.661 31.5834 88.4836 31.7867 88.3099 31.9938C88.1029 32.2341 87.9033 32.4744 87.7038 32.7185C87.1642 33.4173 86.6579 34.1235 86.1959 34.8408C86.1072 34.9739 86.0259 35.1107 85.9409 35.2438C85.6785 35.6653 85.4272 36.0905 85.1907 36.5194C85.0983 36.6784 85.0096 36.8337 84.9319 36.9964C84.7804 37.2774 84.6363 37.5621 84.4959 37.8431C84.4072 38.0206 84.3258 38.1943 84.2445 38.3755C84.1854 38.4975 84.13 38.6195 84.0782 38.7416C83.9563 39.0115 83.8417 39.2814 83.7308 39.555C83.6052 39.8619 83.4906 40.1651 83.3797 40.4719H85.5122C86.0518 40.4719 86.5803 40.4941 87.0866 40.5459C88.162 37.9947 89.7068 35.5877 91.7136 33.4616V28.6291C91.7136 28.6291 91.6952 28.6439 91.6841 28.6513L91.6915 28.6476Z" fill="url(#paint0_radial_1110_93)"></path>
  <path d="M83.3839 40.4683H82.9922C84.2487 37.0371 86.2555 33.739 89.0865 30.7626C89.9106 29.9122 90.7865 29.1172 91.7178 28.3851V28.6255C91.7178 28.6255 91.6993 28.6403 91.6883 28.6477C91.5219 28.7808 91.363 28.9213 91.2041 29.0655C90.6461 29.5498 90.1028 30.0601 89.5854 30.5925C89.4708 30.7071 89.3599 30.8291 89.2491 30.9474C89.1086 31.0916 88.9756 31.2358 88.8425 31.3837C88.6577 31.5834 88.4804 31.7868 88.3067 31.9938C88.0997 32.2341 87.9001 32.4745 87.7006 32.7185C87.161 33.4173 86.6547 34.1235 86.1927 34.8408C86.104 34.9739 86.0227 35.1107 85.9377 35.2438C85.6753 35.6653 85.424 36.0905 85.1875 36.5194C85.0951 36.6784 85.0064 36.8337 84.9288 36.9964C84.7772 37.2774 84.6331 37.5621 84.4927 37.8431C84.404 38.0206 84.3227 38.1944 84.2413 38.3756C84.1822 38.4976 84.1268 38.6196 84.075 38.7416C83.9531 39.0115 83.8385 39.2814 83.7276 39.555C83.602 39.8619 83.4874 40.1651 83.3765 40.472L83.3839 40.4683Z" fill="white"></path>
  <path d="M109.147 77.5016C96.6032 77.5423 87.2197 69.9108 83.3281 60.0794C83.4353 59.987 83.5351 59.8908 83.6275 59.7799C87.4452 69.6335 96.7954 77.2798 109.143 77.5016H109.147Z" fill="white"></path>
  <path d="M136.036 55.3319L136.472 55.0139C136.036 57.3026 135.289 59.5876 134.21 61.8283C131.516 67.4372 126.867 72.0294 121.268 74.7064C124.017 73.3013 126.53 71.4415 128.681 69.2416C132.687 65.0635 135.064 60.2495 136.036 55.3319Z" fill="white"></path>
  <path d="M125.375 27.7196V27.3573C131.499 31.7535 135.634 38.579 136.699 46.0736L136.296 46.3657C135.305 39.0448 131.41 32.2231 125.375 27.7196Z" fill="white"></path>
  <path d="M91.7169 25.7267V26.2184C86.9235 29.7495 83.1945 34.7003 81.1988 40.4683H80.918C82.8804 34.4822 86.7351 29.3465 91.7206 25.7267H91.7169Z" fill="white"></path>
  <path d="M134.215 34.1013C132.356 31.2432 130.006 28.7105 127.312 26.6436C126.687 26.1593 126.04 25.6971 125.375 25.2645V24.9724C126.088 25.4457 126.776 25.9485 127.441 26.481C130.113 28.6181 132.415 31.2063 134.215 34.1013Z" fill="white"></path>
  <path d="M138.329 44.8831C138.309 44.7426 138.286 44.602 138.258 44.4615C138.29 44.602 138.313 44.7352 138.337 44.872L138.329 44.8794V44.8831Z" fill="white"></path>
  <path d="M138.652 53.413C136.771 70.7243 119.586 83.5432 101.488 78.67C95.05 76.9359 89.2921 72.9353 85.3672 67.5593C87.3851 70.1844 89.8353 72.4731 92.5813 74.3145C111.806 86.9263 135.777 74.296 138.445 53.5646L138.649 53.4167L138.652 53.413Z" fill="white"></path>
  <path d="M122.784 16.6014V21.2194C121.172 20.6167 119.383 20.7166 117.872 21.4191C117.728 21.4856 117.591 21.5596 117.451 21.6372C116.83 21.9848 116.272 22.4433 115.806 23.0016C115.769 23.0423 115.732 23.0866 115.699 23.131C115.643 23.2012 115.588 23.2715 115.536 23.3454C115.296 23.6819 115.082 24.4029 114.675 24.4547H102.387C102.15 24.4029 101.799 23.6043 101.611 23.3454C101.186 22.7612 100.672 22.2732 100.099 21.8887C99.9512 21.7925 99.7997 21.7001 99.6445 21.6114C98.0701 20.7388 96.1409 20.5761 94.3633 21.2231V16.605C94.4372 16.1022 94.8955 15.4293 95.4166 15.3257C96.1224 15.1815 97.7966 15.2703 98.6392 15.2481C99.0864 15.237 99.5632 15.3627 100.055 15.2111H105.754C105.787 15.5291 105.639 16.4313 105.931 16.6087L111.164 16.6383C111.537 16.5126 111.367 15.5439 111.404 15.2185C113.688 15.2592 115.98 15.1631 118.264 15.2148C119.221 15.237 120.695 15.2 121.582 15.3073C122.14 15.3738 122.787 16.0578 122.787 16.6124L122.784 16.6014Z" fill="url(#paint1_linear_1110_93)"></path>
  <path d="M112.928 26.4328V39.5697L104.229 37.3254V26.3404L104.362 26.2073H112.832C112.806 26.296 112.925 26.4032 112.925 26.4328H112.928Z" fill="#299E44"></path>
  <path d="M112.928 63.1445L112.884 64.4497L108.819 73.1164L108.578 73.634L108.331 73.109L104.365 64.7565L104.229 60.9001L112.928 63.1445Z" fill="#299E44"></path>
  <path d="M112.928 56.2821V59.1957L104.229 56.9513V53.9934L112.777 56.1638L112.928 56.2821Z" fill="#299E44"></path>
  <path d="M112.883 52.2001L104.32 50.0075C104.043 49.793 104.39 47.4785 104.324 46.9978L112.842 49.2828L112.883 52.2001Z" fill="#299E44"></path>
  <path d="M112.804 62.3311L103.897 59.9314C102.825 59.5802 102.958 57.9681 104.026 57.7795C104.222 57.7463 104.407 57.7426 104.596 57.8017L113.284 60.1385C114.485 60.7153 114.116 62.3274 112.804 62.3311Z" fill="#299E44"></path>
  <path d="M113.978 41.3408C113.456 41.3038 112.902 41.289 112.311 41.289H107.177C106.848 41.2114 106.527 41.13 106.202 41.0487C105.466 40.8601 104.757 40.6457 104.069 40.4016C103.881 40.3351 103.593 40.2168 103.456 40.0763C102.724 39.3553 103.349 38.124 104.343 38.1536L113.309 40.5754C113.571 40.6863 113.756 40.8527 113.863 41.0487C113.918 41.1411 113.955 41.2372 113.978 41.3408Z" fill="#299E44"></path>
  <path d="M113.875 47.9C113.834 47.9851 113.771 48.0627 113.705 48.1329C113.409 48.4324 112.947 48.499 112.544 48.414C110.368 47.6634 107.843 47.2715 105.574 46.6355H112.308C113.139 46.6355 113.579 46.6651 113.79 46.691C113.827 46.739 113.856 46.7797 113.875 46.8241C114.052 47.1531 114.063 47.5636 113.875 47.9Z" fill="#299E44"></path>
  <path d="M113.875 54.8068C113.653 55.2061 113.18 55.4834 112.53 55.3355L103.782 52.9617C102.825 52.5254 102.995 51.0465 104.026 50.8727C104.381 50.8172 104.691 50.9208 105.035 50.9873C107.744 51.5419 110.508 52.6105 113.221 53.2058C113.539 53.3315 113.753 53.5238 113.879 53.753C114.075 54.0858 114.06 54.4851 113.879 54.8068H113.875Z" fill="#299E44"></path>
  <path d="M112.928 26.4328V39.5697L104.229 37.3254V26.3404L104.362 26.2073H112.832C112.806 26.296 112.925 26.4032 112.925 26.4328H112.928Z" fill="url(#paint2_linear_1110_93)"></path>
  <path d="M112.928 26.4328V39.5697L104.229 37.3254V26.3404L104.362 26.2073H112.832C112.806 26.296 112.925 26.4032 112.925 26.4328H112.928Z" fill="url(#paint3_linear_1110_93)"></path>
  <path d="M112.928 63.1445L112.884 64.4497L108.819 73.1164L108.578 73.634L108.331 73.109L104.365 64.7565L104.229 60.9001L112.928 63.1445Z" fill="url(#paint4_linear_1110_93)"></path>
  <path d="M112.928 63.1445L112.884 64.4497L108.819 73.1164L108.578 73.634L108.331 73.109L104.365 64.7565L104.229 60.9001L112.928 63.1445Z" fill="url(#paint5_linear_1110_93)"></path>
  <path d="M112.928 56.2821V59.1957L104.229 56.9513V53.9934L112.777 56.1638L112.928 56.2821Z" fill="url(#paint6_linear_1110_93)"></path>
  <path d="M112.928 56.2821V59.1957L104.229 56.9513V53.9934L112.777 56.1638L112.928 56.2821Z" fill="url(#paint7_linear_1110_93)"></path>
  <path d="M112.883 52.2001L104.32 50.0075C104.043 49.793 104.39 47.4785 104.324 46.9978L112.842 49.2828L112.883 52.2001Z" fill="url(#paint8_linear_1110_93)"></path>
  <path d="M112.883 52.2001L104.32 50.0075C104.043 49.793 104.39 47.4785 104.324 46.9978L112.842 49.2828L112.883 52.2001Z" fill="url(#paint9_linear_1110_93)"></path>
  <path d="M112.804 62.3311L103.897 59.9314C102.825 59.5802 102.958 57.9681 104.026 57.7795C104.222 57.7463 104.407 57.7426 104.596 57.8017L113.284 60.1385C114.485 60.7153 114.116 62.3274 112.804 62.3311Z" fill="url(#paint10_linear_1110_93)"></path>
  <path d="M112.804 62.3311L103.897 59.9314C102.825 59.5802 102.958 57.9681 104.026 57.7795C104.222 57.7463 104.407 57.7426 104.596 57.8017L113.284 60.1385C114.485 60.7153 114.116 62.3274 112.804 62.3311Z" fill="url(#paint11_linear_1110_93)"></path>
  <path d="M113.978 41.3408C113.456 41.3038 112.902 41.289 112.311 41.289H107.177C106.848 41.2114 106.527 41.13 106.202 41.0487C105.466 40.8601 104.757 40.6457 104.069 40.4016C103.881 40.3351 103.593 40.2168 103.456 40.0763C102.724 39.3553 103.349 38.124 104.343 38.1536L113.309 40.5754C113.571 40.6863 113.756 40.8527 113.863 41.0487C113.918 41.1411 113.955 41.2372 113.978 41.3408Z" fill="url(#paint12_linear_1110_93)"></path>
  <path d="M113.978 41.3408C113.456 41.3038 112.902 41.289 112.311 41.289H107.177C106.848 41.2114 106.527 41.13 106.202 41.0487C105.466 40.8601 104.757 40.6457 104.069 40.4016C103.881 40.3351 103.593 40.2168 103.456 40.0763C102.724 39.3553 103.349 38.124 104.343 38.1536L113.309 40.5754C113.571 40.6863 113.756 40.8527 113.863 41.0487C113.918 41.1411 113.955 41.2372 113.978 41.3408Z" fill="url(#paint13_linear_1110_93)"></path>
  <path d="M113.875 47.9C113.834 47.9851 113.771 48.0627 113.705 48.1329C113.409 48.4324 112.947 48.499 112.544 48.414C110.368 47.6634 107.843 47.2715 105.574 46.6355H112.308C113.139 46.6355 113.579 46.6651 113.79 46.691C113.827 46.739 113.856 46.7797 113.875 46.8241C114.052 47.1531 114.063 47.5636 113.875 47.9Z" fill="url(#paint14_linear_1110_93)"></path>
  <path d="M113.875 47.9C113.834 47.9851 113.771 48.0627 113.705 48.1329C113.409 48.4324 112.947 48.499 112.544 48.414C110.368 47.6634 107.843 47.2715 105.574 46.6355H112.308C113.139 46.6355 113.579 46.6651 113.79 46.691C113.827 46.739 113.856 46.7797 113.875 46.8241C114.052 47.1531 114.063 47.5636 113.875 47.9Z" fill="url(#paint15_linear_1110_93)"></path>
  <path d="M113.875 54.8068C113.653 55.2061 113.18 55.4834 112.53 55.3355L103.782 52.9617C102.825 52.5254 102.995 51.0465 104.026 50.8727C104.381 50.8172 104.691 50.9208 105.035 50.9873C107.744 51.5419 110.508 52.6105 113.221 53.2058C113.539 53.3315 113.753 53.5238 113.879 53.753C114.075 54.0858 114.06 54.4851 113.879 54.8068H113.875Z" fill="url(#paint16_linear_1110_93)"></path>
  <path d="M113.875 54.8068C113.653 55.2061 113.18 55.4834 112.53 55.3355L103.782 52.9617C102.825 52.5254 102.995 51.0465 104.026 50.8727C104.381 50.8172 104.691 50.9208 105.035 50.9873C107.744 51.5419 110.508 52.6105 113.221 53.2058C113.539 53.3315 113.753 53.5238 113.879 53.753C114.075 54.0858 114.06 54.4851 113.879 54.8068H113.875Z" fill="url(#paint17_linear_1110_93)"></path>
  <path d="M37.4415 56.4004L21.9859 48.2217L36.9389 40.3943C37.5487 40.0763 37.8554 39.6363 37.8554 39.0854C37.8554 38.2498 37.338 37.8282 36.3069 37.8282H34.8545C34.7214 37.8282 34.5071 37.88 34.2114 37.9761L18.5895 46.2953V39.1852C18.5895 38.2793 18.1313 37.8319 17.2184 37.8319H16.1725C15.2671 37.8319 14.8125 38.2793 14.8125 39.1852V57.6168C14.8125 58.5264 15.2671 58.9849 16.1725 58.9849H17.2184C18.135 58.9849 18.5895 58.5264 18.5895 57.6168V50.2553L34.8027 58.8185C35.0097 58.9294 35.2278 58.9849 35.4458 58.9849H36.8132C37.848 58.9849 38.3654 58.5634 38.3654 57.7277C38.3654 57.1768 38.055 56.7368 37.4415 56.4041V56.4004Z" fill="#1D1D1B"></path>
  <path d="M56.6522 42.3317H50.8166C48.3996 42.3317 46.5591 42.5868 45.3062 43.0897C43.4066 43.8624 42.4531 45.2601 42.4531 47.2825V62.2312C42.4531 63.1333 42.9003 63.5807 43.8058 63.5807H44.763C45.6647 63.5807 46.1119 63.1333 46.1119 62.2312V58.848H57.5428C62.8204 58.848 65.4591 57.1288 65.4591 53.6828V47.2308C65.4591 43.9623 62.5247 42.328 56.6485 42.328L56.6522 42.3317ZM61.7523 53.7308C61.7523 55.1026 60.3516 55.794 57.5465 55.794H46.1156V47.3602C46.1156 46.0513 47.738 45.4006 50.9829 45.4006H56.6891C58.1268 45.4006 59.1357 45.456 59.7085 45.5669C61.0723 45.8295 61.7523 46.3989 61.7523 47.2825V53.7345V53.7308Z" fill="#1D1D1B"></path>
  <path d="M90.2861 43.256C89.1774 42.7347 87.8876 42.4278 86.4167 42.3465C86.1247 42.328 85.8253 42.3169 85.5149 42.3169H78.6704C76.4529 42.3169 74.5755 42.6497 73.0455 43.3189C71.8443 43.8513 70.9906 44.539 70.4769 45.4005C70.0926 46.0402 69.9004 46.7686 69.9004 47.5931V53.716C69.9004 54.7661 70.1887 55.6609 70.7689 56.4041C71.29 57.0844 72.0661 57.639 73.0861 58.0605C74.5681 58.6743 76.4825 58.9848 78.8219 58.9848H81.165C82.0298 58.9848 82.477 58.5633 82.514 57.7314C82.5177 57.6908 82.5177 57.6575 82.5177 57.6168V57.284C82.5177 56.7812 82.3772 56.4151 82.1074 56.197C81.8857 56.0084 81.5715 55.916 81.165 55.916H78.4302C75.2629 55.916 73.6774 54.7661 73.6774 52.4663H91.8864C92.5664 52.4663 92.9064 51.9635 92.9064 50.9504V46.9424C92.9064 45.3155 92.0342 44.0843 90.2861 43.2634V43.256ZM89.34 49.2754H73.5555V47.3713C73.5555 46.0809 75.3997 45.4338 79.0843 45.4338H84.3951C84.7868 45.4338 85.1897 45.456 85.5999 45.5078C86.1284 45.5632 86.6717 45.6594 87.226 45.7962C88.6341 46.14 89.3363 46.6207 89.3363 47.2419V49.2754H89.34Z" fill="#1D1D1B"></path>
  <path d="M119.11 43.7663C118.168 42.8087 116.042 42.328 112.746 42.328H104.449C101.215 42.328 99.0975 42.8198 98.0997 43.7996C97.5083 44.3838 97.209 45.4671 97.209 47.0644V57.6131C97.209 58.5227 97.6636 58.9812 98.5616 58.9812H99.5188C100.421 58.9812 100.868 58.5227 100.868 57.6131V47.0348C100.868 46.3101 101.285 45.8332 102.106 45.6002C102.546 45.4782 103.329 45.4153 104.464 45.4153H112.746C113.965 45.4153 114.734 45.4819 115.052 45.6002C115.832 45.896 116.227 46.3693 116.227 47.02V57.6131C116.227 58.5227 116.682 58.9812 117.595 58.9812H118.552C119.461 58.9812 119.919 58.5227 119.919 57.6131V47.0348C119.919 45.3969 119.649 44.3061 119.11 43.77V43.7663Z" fill="#1D1D1B"></path>
  <path d="M147.383 42.487C147.146 42.3798 146.843 42.328 146.474 42.328H145.369C145.081 42.328 144.814 42.4205 144.559 42.609L138.639 46.9424L138.58 46.9831L136.917 48.2032L136.506 48.5027L133.077 51.0096L128.501 54.3557V43.6924C128.501 42.7828 128.043 42.3243 127.134 42.3243H126.225C125.316 42.3243 124.857 42.7828 124.857 43.6924V57.7352C124.857 58.5634 125.36 58.9738 126.373 58.9738H127.515C127.796 58.9738 128.062 58.8851 128.306 58.7113L132.389 55.7164L136.418 52.7585L136.843 52.4442L138.668 51.1094L138.82 50.9948L144.378 46.9165V57.6132C144.378 58.5227 144.837 58.9812 145.746 58.9812H146.655C146.784 58.9812 146.91 58.9738 147.021 58.9479C147.686 58.8407 148.022 58.3933 148.022 57.6132V43.5371C148.022 43.0195 147.808 42.6682 147.379 42.487H147.383Z" fill="#1D1D1B"></path>
  <path d="M175.218 38.6343C173.836 38.0945 171.674 37.8246 168.74 37.8246H162.719C156.211 37.8246 152.959 39.7398 152.959 43.5667V53.3168C152.959 54.2522 153.203 55.0952 153.698 55.8569C155.051 57.9385 158.066 58.9775 162.738 58.9775H168.74C175.27 58.9775 178.537 57.0881 178.537 53.2983V43.5667C178.537 41.1338 177.428 39.4884 175.218 38.6343ZM174.671 53.2206C174.671 54.951 172.727 55.8162 168.836 55.8162H162.705C158.776 55.8162 156.817 54.951 156.817 53.2206V43.6554C156.817 41.8696 158.776 40.9785 162.705 40.9785H168.825C172.724 40.9785 174.675 41.8696 174.675 43.6554V53.2206H174.671Z" fill="#1D1D1B"></path>
  <path d="M207.845 37.8246H206.721C205.812 37.8246 205.354 38.272 205.354 39.1779V53.9084L187.592 38.7786C187.359 38.5789 187.089 38.394 186.783 38.2202C186.132 37.8468 185.545 37.6545 185.016 37.6545C184.65 37.6545 184.321 37.7433 184.026 37.9171C183.364 38.3053 183.035 38.7305 183.035 39.2075V57.6058C183.035 58.5154 183.482 58.9738 184.384 58.9738H185.526C186.435 58.9738 186.894 58.5154 186.894 57.6021V42.7829L204.881 58.1049C205.213 58.3823 205.409 58.5449 205.476 58.5856C205.923 58.911 206.318 59.07 206.644 59.07C207.479 59.07 208.081 58.9443 208.447 58.6891C208.95 58.3379 209.205 57.6723 209.205 56.6962V39.1668C209.205 38.2646 208.746 37.8172 207.837 37.8172L207.845 37.8246Z" fill="#1D1D1B"></path>
  <defs>
    <radialGradient id="paint0_radial_1110_93" cx="0" cy="0" r="1" gradientUnits="userSpaceOnUse" gradientTransform="translate(109.153 49.8851) rotate(45.013) scale(38.6958 38.6958)">
      <stop offset="0.86" stop-color="#299E44"></stop>
      <stop offset="0.9" stop-color="#8CC794"></stop>
      <stop offset="0.97" stop-color="#55AB5D"></stop>
      <stop offset="1" stop-color="#299E44"></stop>
    </radialGradient>
    <linearGradient id="paint1_linear_1110_93" x1="94.367" y1="19.8218" x2="122.784" y2="19.8218" gradientUnits="userSpaceOnUse">
      <stop stop-color="#252525"></stop>
      <stop offset="0.48" stop-color="#828282"></stop>
      <stop offset="1" stop-color="#252525"></stop>
    </linearGradient>
    <linearGradient id="paint2_linear_1110_93" x1="103.135" y1="49.9225" x2="114.015" y2="49.9225" gradientUnits="userSpaceOnUse">
      <stop stop-color="#252525"></stop>
      <stop offset="0.48" stop-color="#828282"></stop>
      <stop offset="1" stop-color="#252525"></stop>
    </linearGradient>
    <linearGradient id="paint3_linear_1110_93" x1="103.135" y1="49.9225" x2="114.015" y2="49.9225" gradientUnits="userSpaceOnUse">
      <stop stop-color="#252525"></stop>
      <stop offset="0.48" stop-color="#828282"></stop>
      <stop offset="1" stop-color="#252525"></stop>
    </linearGradient>
    <linearGradient id="paint4_linear_1110_93" x1="103.135" y1="49.9225" x2="114.015" y2="49.9225" gradientUnits="userSpaceOnUse">
      <stop stop-color="#252525"></stop>
      <stop offset="0.48" stop-color="#828282"></stop>
      <stop offset="1" stop-color="#252525"></stop>
    </linearGradient>
    <linearGradient id="paint5_linear_1110_93" x1="103.135" y1="49.9225" x2="114.015" y2="49.9225" gradientUnits="userSpaceOnUse">
      <stop stop-color="#252525"></stop>
      <stop offset="0.48" stop-color="#828282"></stop>
      <stop offset="1" stop-color="#252525"></stop>
    </linearGradient>
    <linearGradient id="paint6_linear_1110_93" x1="103.135" y1="49.9226" x2="114.015" y2="49.9226" gradientUnits="userSpaceOnUse">
      <stop stop-color="#252525"></stop>
      <stop offset="0.48" stop-color="#828282"></stop>
      <stop offset="1" stop-color="#252525"></stop>
    </linearGradient>
    <linearGradient id="paint7_linear_1110_93" x1="103.135" y1="49.9226" x2="114.015" y2="49.9226" gradientUnits="userSpaceOnUse">
      <stop stop-color="#252525"></stop>
      <stop offset="0.48" stop-color="#828282"></stop>
      <stop offset="1" stop-color="#252525"></stop>
    </linearGradient>
    <linearGradient id="paint8_linear_1110_93" x1="103.134" y1="49.9225" x2="114.014" y2="49.9225" gradientUnits="userSpaceOnUse">
      <stop stop-color="#252525"></stop>
      <stop offset="0.48" stop-color="#828282"></stop>
      <stop offset="1" stop-color="#252525"></stop>
    </linearGradient>
    <linearGradient id="paint9_linear_1110_93" x1="103.134" y1="49.9225" x2="114.014" y2="49.9225" gradientUnits="userSpaceOnUse">
      <stop stop-color="#252525"></stop>
      <stop offset="0.48" stop-color="#828282"></stop>
      <stop offset="1" stop-color="#252525"></stop>
    </linearGradient>
    <linearGradient id="paint10_linear_1110_93" x1="103.136" y1="49.9225" x2="114.016" y2="49.9225" gradientUnits="userSpaceOnUse">
      <stop stop-color="#252525"></stop>
      <stop offset="0.48" stop-color="#828282"></stop>
      <stop offset="1" stop-color="#252525"></stop>
    </linearGradient>
    <linearGradient id="paint11_linear_1110_93" x1="103.136" y1="49.9225" x2="114.016" y2="49.9225" gradientUnits="userSpaceOnUse">
      <stop stop-color="#252525"></stop>
      <stop offset="0.48" stop-color="#828282"></stop>
      <stop offset="1" stop-color="#252525"></stop>
    </linearGradient>
    <linearGradient id="paint12_linear_1110_93" x1="103.134" y1="49.9225" x2="114.014" y2="49.9225" gradientUnits="userSpaceOnUse">
      <stop stop-color="#252525"></stop>
      <stop offset="0.48" stop-color="#828282"></stop>
      <stop offset="1" stop-color="#252525"></stop>
    </linearGradient>
    <linearGradient id="paint13_linear_1110_93" x1="103.134" y1="49.9225" x2="114.014" y2="49.9225" gradientUnits="userSpaceOnUse">
      <stop stop-color="#252525"></stop>
      <stop offset="0.48" stop-color="#828282"></stop>
      <stop offset="1" stop-color="#252525"></stop>
    </linearGradient>
    <linearGradient id="paint14_linear_1110_93" x1="103.135" y1="49.9225" x2="114.015" y2="49.9225" gradientUnits="userSpaceOnUse">
      <stop stop-color="#252525"></stop>
      <stop offset="0.48" stop-color="#828282"></stop>
      <stop offset="1" stop-color="#252525"></stop>
    </linearGradient>
    <linearGradient id="paint15_linear_1110_93" x1="103.135" y1="49.9225" x2="114.015" y2="49.9225" gradientUnits="userSpaceOnUse">
      <stop stop-color="#252525"></stop>
      <stop offset="0.48" stop-color="#828282"></stop>
      <stop offset="1" stop-color="#252525"></stop>
    </linearGradient>
    <linearGradient id="paint16_linear_1110_93" x1="103.135" y1="49.9225" x2="114.016" y2="49.9225" gradientUnits="userSpaceOnUse">
      <stop stop-color="#252525"></stop>
      <stop offset="0.48" stop-color="#828282"></stop>
      <stop offset="1" stop-color="#252525"></stop>
    </linearGradient>
    <linearGradient id="paint17_linear_1110_93" x1="103.135" y1="49.9225" x2="114.016" y2="49.9225" gradientUnits="userSpaceOnUse">
      <stop stop-color="#252525"></stop>
      <stop offset="0.48" stop-color="#828282"></stop>
      <stop offset="1" stop-color="#252525"></stop>
    </linearGradient>
  </defs>
</svg>
