<svg width="25" height="23" viewBox="0 0 25 23" fill="none" xmlns="http://www.w3.org/2000/svg">
<path d="M4.1978 10.0996C4.1093 9.98895 4.13776 9.822 4.05656 9.70507C3.9452 9.54471 3.84576 9.3814 3.7351 9.22045C3.53925 8.93558 3.24379 8.74619 3.00451 8.50691C2.85019 8.35258 2.88275 7.96061 2.88275 7.75441C2.88275 7.56364 2.88275 7.37288 2.88275 7.18212C2.88275 6.62036 2.92659 6.04167 2.92659 5.47255C2.92659 5.2604 3.01426 5.0393 3.01426 4.83937C3.01426 4.60502 3.2444 4.3959 3.33084 4.19159C3.50096 3.7895 3.94773 3.6141 4.26356 3.36846C4.52961 3.16154 5.07255 3.09058 5.40327 3.0397C5.58081 3.01239 5.72568 2.8668 5.90737 2.8668C6.06212 2.8668 6.22405 2.82296 6.38956 2.82296C6.66706 2.82296 7.11188 2.74577 7.35393 2.8668" stroke="#FF0000" stroke-width="3" stroke-linecap="round"/>
<path d="M5.07432 2.34081C4.94412 2.23404 4.80166 2.14366 4.69929 2.01205C4.66575 1.96893 4.6382 1.92036 4.59214 1.89272C4.55426 1.86999 4.85609 1.90246 4.94282 1.90246" stroke="#FF0000" stroke-width="3" stroke-linecap="round"/>
<path d="M6.47705 1.94629C7.00322 1.94629 7.47566 2.17183 7.9918 2.27505C8.14649 2.30599 8.31927 2.31618 8.45937 2.39438C8.56804 2.45504 8.72839 2.55033 8.85389 2.55998C9.01816 2.57262 9.18841 2.94808 9.29467 3.05434C9.40292 3.16259 9.56734 3.21114 9.65753 3.32709C9.77193 3.47418 9.93363 3.56946 10.0715 3.69969C10.1708 3.79348 10.3784 3.91266 10.3784 4.07229C10.3784 4.1685 10.4251 4.44635 10.5099 4.48872" stroke="#FF0000" stroke-width="3" stroke-linecap="round"/>
<path d="M10.6414 4.62015C10.6239 5.21704 9.83325 4.91477 9.49199 4.80523C8.91071 4.61865 8.2755 4.57631 7.6704 4.57631C7.3254 4.57631 6.98041 4.57631 6.63541 4.57631C6.41235 4.57631 6.109 4.54786 5.89752 4.63963C5.59578 4.77057 5.40123 5.07983 5.27165 5.36778C4.93315 6.11999 4.2065 6.87642 4.15629 7.73C4.1426 7.9627 4.13366 8.20968 4.19769 8.4338C4.23523 8.56518 4.28536 8.63624 4.28536 8.77474C4.28536 9.27451 4.3292 9.76734 4.3292 10.2651C4.3292 10.5195 4.32043 10.7756 4.3292 11.0298C4.33482 11.193 4.41968 11.3039 4.45827 11.4389C4.52665 11.6783 4.78524 11.6938 4.9648 11.8335C5.15276 11.9796 5.38953 12.142 5.60041 12.2475" stroke="#FF0000" stroke-width="3" stroke-linecap="round"/>
<path d="M5.46875 12.2476C5.86191 12.6407 6.40722 12.8856 6.76188 13.3191C7.01801 13.6321 7.25444 13.9204 7.50465 14.2421C7.6396 14.4156 7.86798 14.7381 7.92595 14.941C8.02108 15.2739 8.34787 15.5763 8.53964 15.864C8.81553 16.2778 9.25762 16.6571 9.58925 17.0256C9.77808 17.2354 9.92284 17.5347 10.0617 17.7708C10.2745 18.1325 10.5463 18.1718 10.9043 18.3309C10.9568 18.3542 11.2389 18.4486 11.2525 18.4965C11.2947 18.6442 11.3426 18.7502 11.3426 18.9105" stroke="#FF0000" stroke-width="3" stroke-linecap="round"/>
<path d="M11.562 19.4802C11.6419 19.5601 11.7771 19.6623 11.825 19.77C11.8767 19.8862 11.9141 20.0076 12.0004 20.0939" stroke="#FF0000" stroke-width="3" stroke-linecap="round"/>
<path d="M13.0083 19.5679C13.1337 19.2892 13.381 18.9747 13.5879 18.7448C13.6719 18.6515 13.7504 18.4762 13.8436 18.4063C13.9462 18.3293 14.0197 18.1682 14.0823 18.0556C14.1472 17.9388 14.3234 17.7706 14.3234 17.6392" stroke="#FF0000" stroke-width="3" stroke-linecap="round"/>
<path d="M14.3234 17.5954C14.7103 17.2865 15.2962 16.8686 15.4729 16.3582C15.5824 16.0419 15.7316 15.7796 15.8918 15.4913C16.0076 15.2828 16.0926 15.011 16.2522 14.8337C16.5038 14.5542 16.7612 14.2808 17.0315 14.0106C17.4192 13.6229 17.8767 13.2747 18.1273 12.7735C18.2882 12.4518 18.6326 12.1607 18.8823 11.8968C19.0451 11.7247 19.2238 11.5509 19.3645 11.361C19.4161 11.2913 19.5341 11.2485 19.5398 11.1516C19.5531 10.9255 19.7305 10.7294 19.8369 10.5379C19.9657 10.3061 20.0426 10.0698 20.1973 9.84628C20.3251 9.6618 20.516 9.50314 20.6016 9.31052C20.7002 9.08866 20.851 8.88655 20.9864 8.68709C21.1053 8.51177 21.2231 8.36045 21.3029 8.17081C21.4076 7.92235 21.4688 7.66863 21.5903 7.42561C21.7589 7.08834 21.6877 6.62776 21.6877 6.25181C21.6877 6.02977 21.6812 5.80647 21.6877 5.58454C21.6951 5.33235 21.7652 5.12549 21.678 4.87344C21.5255 4.43306 21.1255 4.001 20.7234 3.77756C20.291 3.53739 19.9347 3.18353 19.496 2.96418C19.3312 2.8818 19.2944 2.67114 19.1258 2.58427C18.9395 2.48829 18.7636 2.41465 18.5754 2.331C17.9266 2.04264 17.2399 2.34921 16.637 2.55018C16.2481 2.67981 15.8532 2.90537 15.507 3.12978C15.1977 3.33026 14.7322 3.46356 14.489 3.73373C14.061 4.20931 13.378 4.42196 12.8964 4.83934C12.487 5.19412 12.0501 5.51023 11.669 5.89139C11.5655 5.99489 11.45 6.10018 11.3329 6.19823C11.206 6.30451 11.0604 6.49689 10.9043 6.54891" stroke="#FF0000" stroke-width="3" stroke-linecap="round"/>
<path d="M18.7946 4.79554C17.9212 4.78538 17.0047 4.79764 16.1401 4.66403C15.3413 4.54058 14.6179 4.54744 13.8412 4.79798C12.9481 5.08609 12.0117 5.43994 11.2306 5.96935C10.7198 6.31558 10.24 6.69277 9.74022 7.05305C9.26098 7.39855 7.11852 8.7008 6.95913 7.42564C6.94903 7.34487 6.88159 6.59349 6.78379 6.82169C6.59448 7.26342 6.36304 7.68741 6.16766 8.12701C5.89198 8.74729 6.03792 9.25555 6.21393 9.88041C6.31072 10.224 6.54952 10.8768 6.96157 10.4405C7.10097 10.2929 7.199 10.1354 7.2538 9.93886C7.4034 9.40237 7.52909 8.83615 7.59474 8.28286C7.64291 7.87682 7.50156 7.44488 7.45106 7.04087C7.42724 6.85031 7.44802 6.52772 7.64101 6.41744C7.91835 6.25896 8.01698 5.88705 8.32776 5.75991C8.61047 5.64426 8.6687 5.76491 8.6687 6.04727C8.6687 6.659 8.52938 7.17491 8.13294 7.65456C7.83665 8.01303 7.45935 8.29183 7.14421 8.63354C6.94787 8.84645 6.69047 9.06257 6.61088 9.35439C6.5378 9.62238 6.52446 9.83143 6.69612 10.046C7.13747 10.5977 7.69484 11.0621 8.11345 11.6314C8.37668 11.9894 8.49977 12.4297 8.80994 12.7638C8.87637 12.8353 9.00415 13.2165 8.97067 13.0073C8.9205 12.6937 8.74344 12.3933 8.6687 12.0819C8.4916 11.344 8.41874 10.5359 8.45926 9.77813C8.50758 8.87466 9.48686 8.32686 10.1761 7.89078C10.9269 7.41582 11.7358 6.97504 12.3947 6.37604C12.5112 6.27015 12.6102 6.15804 12.721 6.04727C12.8286 5.93966 12.4233 6.346 12.3752 6.39308C11.4303 7.31741 10.1564 7.92323 9.44068 9.06459C9.0119 9.74833 8.83746 10.4455 8.76611 11.2393C8.72647 11.6803 8.7138 12.195 8.86596 12.6177C9.02426 13.0574 9.39447 13.3912 9.53566 13.845C9.74663 14.5232 9.84812 15.249 10.1347 15.9004C10.1873 16.0199 10.4078 16.1147 10.4221 16.2365C10.4339 16.3371 10.6253 16.6308 10.707 16.6943C10.8184 16.781 10.9219 16.7625 11.0626 16.7625C11.4989 16.7625 11.9194 16.8237 12.3508 16.8843C12.5962 16.9187 12.8585 16.894 13.1058 16.894C13.4601 16.894 13.7119 16.9096 13.9046 16.5726C14.8865 14.8542 15.8271 13.1311 16.9 11.4682C17.4307 10.6455 17.8176 9.77508 18.271 8.9136C18.8373 7.83756 19.3975 6.82338 20.1437 5.84758C20.1987 5.77568 20.5257 5.46533 20.3946 5.49447C20.111 5.55749 19.7887 5.5326 19.496 5.58457C17.9945 5.85118 16.5273 6.44008 15.1003 6.96051C14.5981 7.14365 13.9405 7.25902 13.4906 7.56689C13.4519 7.59337 13.199 7.77619 13.2909 7.70327C13.5238 7.51825 13.7106 7.23659 13.9046 7.01165C14.0553 6.83673 14.1942 6.63996 14.3892 6.50998C14.5159 6.4255 14.632 6.27586 14.6838 6.44179C14.7175 6.54935 14.9168 6.50629 15.0004 6.50511C15.4043 6.49942 15.7986 6.41744 16.2059 6.41744C16.6373 6.41744 17.8989 6.50549 17.8741 7.16263C17.867 7.35067 17.6167 7.56337 17.4795 7.66917C17.1923 7.89078 16.8571 8.11396 16.5347 8.27799C15.967 8.56681 15.3858 8.80929 14.8397 9.13521C14.3807 9.40911 14.021 9.83214 13.6464 10.2067C13.346 10.5071 12.9916 10.7379 12.7015 11.0445C12.3973 11.3661 12.1448 11.7702 11.8662 12.1184C11.5593 12.5021 11.2503 12.8501 11.1235 13.3434C11.0302 13.706 11.267 13.7836 11.6056 13.923C11.9837 14.0785 12.5831 14.044 12.9791 13.9741C13.4303 13.8945 13.6799 13.4942 13.9533 13.168C14.3103 12.7421 14.6758 12.3232 14.8835 11.7994C15.0393 11.4069 15.1902 11.0026 15.2878 10.5915C15.3185 10.4621 15.3528 10.328 15.4193 10.2116C15.5172 10.0402 14.8351 10.4493 14.7618 10.4941C14.2595 10.801 13.7709 11.1073 13.2373 11.3611C12.8533 11.5436 12.2281 11.9014 11.7834 11.7142C11.1323 11.44 10.9422 10.6049 11.0017 9.97782C11.0347 9.6303 11.2006 9.39233 11.4644 9.17905C11.5884 9.07883 11.7446 8.89532 11.9101 8.87464C12.3144 8.82409 12.4798 9.62586 12.4823 9.89989C12.4888 10.5951 11.8902 11.3872 11.2184 11.6046C10.5976 11.8055 10.8557 9.97217 10.914 9.68072C11.0321 9.0904 11.4397 8.21553 12.1755 8.35349C12.7415 8.45961 12.8769 9.51768 12.8769 9.96808" stroke="#FF0000" stroke-width="3" stroke-linecap="round"/>
<path fill-rule="evenodd" clip-rule="evenodd" d="M21.19 10.2615L12.1086 21L3.02715 10.2172C1.94116 8.72174 1.51357 7.71149 1.51357 6.32849C1.51357 3.74924 3.37149 1.428 6.0543 1.40625C8.26109 1.38825 10.763 3.62173 12.1086 5.30548C13.4186 3.68098 15.9561 1.40625 18.1629 1.40625C20.7746 1.40625 22.7036 3.74924 22.7036 6.32849C22.7036 7.71149 22.3653 8.79675 21.19 10.2615ZM18.1629 0C15.6405 0 13.7319 1.467 12.1086 3C10.5625 1.37325 8.57667 0 6.0543 0C2.50194 0 0 3.02699 0 6.32849C0 8.09924 0.731814 9.37424 1.53325 10.5727L10.9424 21.7522C11.9981 22.86 12.1979 22.86 13.2536 21.7522L22.6839 10.5727C23.6269 9.37424 24.2172 8.09924 24.2172 6.32849C24.2172 3.02699 21.7153 0 18.1629 0Z" fill="#FF0000"/>
</svg>
