<svg width="25" height="23" viewBox="0 0 25 23" fill="none" xmlns="http://www.w3.org/2000/svg">
<path fill-rule="evenodd" clip-rule="evenodd" d="M21.19 10.2615L12.1086 21L3.02715 10.2172C1.94116 8.72174 1.51357 7.71149 1.51357 6.32849C1.51357 3.74924 3.37149 1.428 6.0543 1.40625C8.26109 1.38825 10.763 3.62173 12.1086 5.30548C13.4186 3.68098 15.9561 1.40625 18.1629 1.40625C20.7746 1.40625 22.7036 3.74924 22.7036 6.32849C22.7036 7.71149 22.3653 8.79675 21.19 10.2615ZM18.1629 0C15.6405 0 13.7319 1.467 12.1086 3C10.5625 1.37325 8.57667 0 6.0543 0C2.50194 0 0 3.02699 0 6.32849C0 8.09924 0.731814 9.37424 1.53325 10.5727L10.9424 21.7522C11.9981 22.86 12.1979 22.86 13.2536 21.7522L22.6839 10.5727C23.6269 9.37424 24.2172 8.09924 24.2172 6.32849C24.2172 3.02699 21.7153 0 18.1629 0Z" fill="#FF0000"/>
</svg>
